<?xml version="1.0" encoding="utf-8"?>
<!-- Generator: Adobe Illustrator 27.5.0, SVG Export Plug-In . SVG Version: 6.00 Build 0)  -->
<svg version="1.1" id="Layer_1" xmlns="http://www.w3.org/2000/svg" xmlns:xlink="http://www.w3.org/1999/xlink" x="0px" y="0px"
	 viewBox="0 0 163.229 164.599" style="enable-background:new 0 0 163.229 164.599;" xml:space="preserve">
<g>
	<g>
		<path style="fill:#133F6B;" d="M127.699,67.277H43.038c-5.298,0-10.596,0.004-15.894,0.006c-5.15,0.002-10.337-0.163-15.482,0.114
			c0.032,0.152,0.058,0.305,0.079,0.459c0.011,0.001,0.022,0.001,0.032,0.002c1.732,9.664,4.002,19.248,6.001,28.868
			c1.989,9.569,3.926,19.159,5.562,28.786c0.794,4.674,1.374,9.378,2.251,14.041c0.437,2.32,0.944,4.633,1.596,6.91
			c0.469,1.639,1.302,3.141,2.551,4.393c2.453,2.459,5.928,3.767,9.255,4.911c4.478,1.539,9.061,2.769,13.734,3.693
			c9.547,1.889,19.372,2.683,29.128,2.67c0.41-0.001,0.819-0.007,1.228-0.012c0.409,0.005,0.818,0.011,1.228,0.012
			c9.756,0.012,19.581-0.781,29.128-2.67c4.673-0.925,9.256-2.154,13.734-3.693c3.327-1.144,6.803-2.452,9.255-4.911
			c1.25-1.253,2.082-2.754,2.551-4.393c0.652-2.278,1.159-4.59,1.596-6.91c0.877-4.663,1.457-9.367,2.251-14.041
			c1.635-9.627,3.573-19.216,5.562-28.786c1.996-9.603,4.261-19.172,5.992-28.819c0.04-0.001,0.081-0.001,0.121-0.002
			c0.018-0.094,0.034-0.188,0.054-0.282c0.015-0.095,0.025-0.191,0.037-0.287C145.626,67.192,136.66,67.277,127.699,67.277z"/>
		<path style="fill:#F598AA;" d="M153.229,71.08c-2.307,9.414-4.337,18.884-6.29,28.365c-1.949,9.464-3.911,18.952-5.4,28.489
			c-0.722,4.622-1.332,9.264-2.325,13.846c-0.25,1.154-0.524,2.304-0.831,3.446c-0.254,0.945-0.51,1.889-0.97,2.771
			c-0.777,1.489-1.978,2.735-3.403,3.725c-3.038,2.112-6.851,3.253-10.417,4.364c-4.589,1.428-9.302,2.504-14.065,3.308
			c-4.831,0.815-9.715,1.347-14.612,1.674c-3.943,0.264-7.891,0.364-11.839,0.488c-3.948-0.123-7.896-0.224-11.839-0.488
			c-4.897-0.328-9.781-0.859-14.611-1.674c-4.763-0.804-9.476-1.88-14.065-3.308c-3.567-1.11-7.379-2.252-10.417-4.364
			c-1.425-0.991-2.627-2.236-3.403-3.725c-0.46-0.882-0.716-1.826-0.97-2.771c-0.307-1.142-0.581-2.292-0.831-3.446
			c-0.993-4.582-1.603-9.224-2.325-13.846c-1.489-9.537-3.451-19.025-5.4-28.489c-1.953-9.481-3.983-18.951-6.29-28.365
			c-0.263-1.075-0.568-2.141-0.864-3.208c4.361,0.213,8.754,0.083,13.117,0.085c4.719,0.002,9.438,0.004,14.156,0.006
			c9.439,0.004,18.878,0.001,28.316,0.001h56.345c10.027,0,20.06,0.101,30.086-0.054C153.791,68.965,153.49,70.018,153.229,71.08z"
			/>
		<g>
			<g>
				<path style="fill:#D1D2D3;" d="M32.395,146.827c-5.371-30.941-15.139-80.597-15.256-81.19l-1.132,0.223
					c0.097,0.49,6.76,34.362,12.103,63.564c0.112,0.512,0.225,1.023,0.334,1.536c1.255,5.897,2.217,11.864,3.602,17.732
					c0.23,0.974,0.469,1.947,0.711,2.919C32.632,150.016,32.507,148.422,32.395,146.827z"/>
			</g>
			<g>
				<path style="fill:#D1D2D3;" d="M39.381,154.974c-0.035-1.283-0.453-4.254-0.454-5.54c-4.677-30.669-13.941-83.175-14.048-83.786
					l-1.136,0.201c0.096,0.546,7.517,42.607,12.427,73.411C37.008,143.344,39.255,154.389,39.381,154.974z"/>
			</g>
			<g>
				<path style="fill:#D1D2D3;" d="M45.243,151.189c-4.014-30.375-12.528-84.908-12.626-85.53l-1.14,0.178
					c0.091,0.582,7.545,48.321,11.79,79.329c0.623,4.828,1.608,7.764,2.207,10.975C45.457,154.951,45.251,152.38,45.243,151.189z"/>
			</g>
			<g>
				<path style="fill:#D1D2D3;" d="M51.194,155.703c0.196,0.858,0.375,1.71,0.538,2.567c-0.016-1.036-0.01-2.072,0.004-3.109
					c-3.202-29.298-11.291-88.84-11.379-89.491l-1.143,0.155c0.082,0.6,6.967,51.286,10.547,82.127
					C50.219,150.54,50.609,153.141,51.194,155.703z"/>
			</g>
			<g>
				<path style="fill:#D1D2D3;" d="M55.48,142.209c0.788,4.241,2.172,12.565,2.796,16.838
					c-2.675-29.366-10.106-92.716-10.181-93.365l-1.146,0.133C47.013,66.366,55.35,141.51,55.48,142.209z"/>
			</g>
			<g>
				<path style="fill:#D1D2D3;" d="M63.799,156.699c-2.029-28.701-7.902-90.344-7.965-91.005l-1.149,0.11
					c0.061,0.642,8.448,92.533,8.635,94.022C63.431,158.775,63.584,157.731,63.799,156.699z"/>
			</g>
			<g>
				<path style="fill:#D1D2D3;" d="M69.166,160.615c0.089-1.502,0.205-7.052,0.328-8.553c-1.711-30.196-5.875-85.728-5.922-86.356
					l-1.151,0.086C62.468,66.407,68.883,158.543,69.166,160.615z"/>
			</g>
			<g>
				<path style="fill:#D1D2D3;" d="M74.69,154.633c0.062,0.928,0.452,5.365,0.538,6.291c0.073,0.785,0.275-4.59,0.395-6.297
					c-1.063-29.492-4.278-88.264-4.314-88.91l-1.152,0.063c0.032,0.587,2.689,49.158,3.972,80.141
					C74.382,148.819,74.497,151.73,74.69,154.633z"/>
			</g>
			<g>
				<path style="fill:#D1D2D3;" d="M81.097,161.495c0.147-1.886,0.282-4.421,0.524-6.299c-0.502-29.3-2.55-88.817-2.573-89.468
					l-1.153,0.04C77.918,66.438,80.9,160.481,81.097,161.495z"/>
			</g>
			<g>
				<path style="fill:#D1D2D3;" d="M86.444,154.965c0.241,1.891,0.282,4.189,0.628,6.064c0.087-1.254,0.428-2.922,0.522-4.175
					c0.074-28.649-0.799-90.451-0.809-91.114l-1.154,0.017C85.641,66.405,86.477,125.596,86.444,154.965z"/>
			</g>
			<g>
				<path style="fill:#D1D2D3;" d="M92.818,161.029c0.214-0.967,0.316-1.96,0.376-2.95c0.085-1.42,0.085-2.843,0.133-4.265
					c0.049-1.468,0.181-2.934,0.303-4.398c0.019-0.227,0.041-0.454,0.061-0.682c0.511-30.767,0.828-82.377,0.832-82.982
					l-1.154-0.007c-0.004,0.674-0.397,64.501-1.011,92.476C92.47,159.162,92.617,160.099,92.818,161.029z"/>
			</g>
			<g>
				<path style="fill:#D1D2D3;" d="M101.106,65.733c-0.015,0.588-1.303,49.279-2.376,80.259c0.071,3.092,0.487,15.12,0.621,13.833
					c1.107-30.257,2.892-93.435,2.909-94.061L101.106,65.733z"/>
			</g>
			<g>
				<path style="fill:#D1D2D3;" d="M108.844,65.721c-0.028,0.603-2.425,51.896-4.095,82.686c0.166,2.979,0.031,7.664,0,10.64
					c0.182-1.434,0.562-4.579,0.666-6.02c0.108-1.498,0.289-2.994,0.482-4.486c1.671-30.79,4.071-82.162,4.1-82.766L108.844,65.721z
					"/>
			</g>
			<g>
				<path style="fill:#D1D2D3;" d="M111.674,152.944c2.228-29.996,6.016-86.523,6.059-87.157l-1.151-0.077
					c-0.041,0.607-3.516,52.465-5.767,83.196c-0.024,3.263-0.051,6.525-0.07,9.788C111.042,156.775,111.361,154.86,111.674,152.944z
					"/>
			</g>
			<g>
				<path style="fill:#D1D2D3;" d="M116.629,157.398c0.337-1.582,0.703-3.159,1.09-4.73c2.791-30.067,7.695-86.238,7.75-86.869
					l-1.149-0.1c-0.048,0.551-3.791,43.429-6.598,74.313c0.011,0.044,0.019,0.092,0.015,0.147
					C117.371,145.903,116.879,151.646,116.629,157.398z"/>
			</g>
			<g>
				<path style="fill:#D1D2D3;" d="M122.98,156.468c0.205-0.869,0.419-1.736,0.631-2.604c3.322-29.748,9.526-87.414,9.595-88.054
					l-1.147-0.123c-0.065,0.601-5.542,51.512-8.959,82.342c-0.077,2.748-0.166,5.499-0.123,8.247
					C122.976,156.339,122.979,156.404,122.98,156.468z"/>
			</g>
			<g>
				<path style="fill:#D1D2D3;" d="M130.264,148.857c3.992-30.755,10.6-82.43,10.677-83.036l-1.145-0.147
					c-0.069,0.538-5.28,41.291-9.242,71.953c-0.044,0.9-0.087,1.801-0.132,2.701c-0.171,3.453-0.361,6.906-0.604,10.354
					C129.964,150.074,130.113,149.465,130.264,148.857z"/>
			</g>
			<g>
				<path style="fill:#D1D2D3;" d="M137.429,141.669c4.602-30.978,11.165-75.276,11.248-75.837l-1.142-0.169
					c-0.081,0.546-6.302,42.539-10.878,73.344c-0.001,0.01-0.001,0.021-0.002,0.031c-0.192,3.053-0.408,6.107-0.68,9.156
					C136.458,146.019,136.95,143.846,137.429,141.669z"/>
			</g>
		</g>
		<path style="opacity:0.63;fill:#F598AA;" d="M123.997,67.963H67.652c-9.439,0-18.878,0.003-28.316-0.001
			c-4.719-0.002-9.438-0.004-14.156-0.006c-4.363-0.002-8.756,0.127-13.117-0.085c0.296,1.068,0.601,2.133,0.864,3.208
			c2.307,9.414,4.337,18.884,6.29,28.365c1.949,9.464,3.911,18.952,5.4,28.489c0.722,4.622,1.332,9.264,2.325,13.846
			c0.25,1.154,0.524,2.304,0.831,3.446c0.254,0.945,0.51,1.889,0.97,2.771c0.777,1.489,1.978,2.735,3.403,3.725
			c3.038,2.112,6.851,3.253,10.417,4.364c4.589,1.428,9.302,2.504,14.065,3.308c4.831,0.815,9.714,1.347,14.612,1.674
			c3.943,0.264,7.89,0.364,11.839,0.488c3.948-0.123,7.896-0.224,11.839-0.488c4.897-0.328,9.781-0.859,14.612-1.674
			c4.763-0.804,9.476-1.88,14.065-3.308c3.567-1.11,7.379-2.252,10.417-4.364c1.425-0.991,2.627-2.236,3.403-3.725
			c0.46-0.882,0.716-1.826,0.97-2.771c0.307-1.142,0.581-2.292,0.831-3.446c0.993-4.582,1.603-9.224,2.325-13.846
			c1.489-9.537,3.451-19.025,5.4-28.489c1.953-9.481,3.983-18.951,6.29-28.365c0.26-1.062,0.561-2.115,0.854-3.17
			C144.057,68.064,134.024,67.963,123.997,67.963z M34.847,147.341c-0.007,0.527-0.731,0.597-0.891,0.121
			c-1.416-4.224-2.551-8.537-3.499-12.89c-1.707-7.832-2.83-15.775-3.999-23.701c-0.71-4.812-1.438-9.627-2.325-14.411
			c-1.332-4.506-2.529-9.074-2.446-13.786c0.01-0.549,0.706-0.569,0.891-0.12c1.827,4.43,3.237,9.016,4.386,13.665
			c2.057,8.323,3.351,16.816,4.897,25.243C33.427,129.999,34.967,138.628,34.847,147.341z M41.082,151.484
			c-0.135,0.29-0.653,0.304-0.783,0c-1.683-3.927-1.875-8.251-2.479-12.426c-0.627-4.329-1.14-8.674-1.741-13.007
			c-0.608-4.382-1.323-8.75-2.043-13.115c-0.938-5.691-1.928-11.373-2.878-17.063c-0.939-3.553-1.702-7.142-1.812-10.817
			c-0.013-0.445,0.634-0.624,0.845-0.229c2.259,4.22,3.514,8.905,4.434,13.577c0.853,4.332,1.405,8.715,2.038,13.083
			c0.695,4.797,1.683,9.543,2.494,14.321c0.809,4.768,1.506,9.551,2.218,14.334c0.293,1.966,0.558,3.946,0.595,5.936
			C42.003,147.907,41.861,149.805,41.082,151.484z M48.275,151.205c-0.097,0.359-0.653,0.466-0.829,0.108
			c-0.811-1.653-1.193-3.463-1.474-5.271c-0.292-1.876-0.554-3.762-0.799-5.645c-1.048-8.042-2.266-16.056-3.188-24.115
			c-0.753-6.576-3.524-23.707-3.794-25.231c-0.257-1.448-0.405-2.984,0.021-4.414c0.102-0.341,0.502-0.425,0.758-0.2
			c1.385,1.217,2.101,3.019,2.575,4.758c0.496,1.819,0.766,3.7,1.068,5.558c0.77,4.754,1.532,9.51,2.146,14.288
			c0.609,4.741,1.108,9.495,1.586,14.25c0.454,4.507,0.883,9.027,1.588,13.503C48.572,142.861,49.367,147.143,48.275,151.205z
			 M54.401,152.226c-0.121,0.48-0.715,0.378-0.875,0c-1.517-3.599-4.206-31.748-4.709-35.881
			c-0.766-6.286-1.736-12.544-2.702-18.802c-0.086-0.525-0.168-1.051-0.258-1.575c-0.287-1.682-0.597-3.369-0.811-5.063
			c-0.198-1.571-0.303-3.282,0.312-4.778c0.102-0.247,0.4-0.456,0.666-0.271c1.467,1.017,2.008,2.839,2.322,4.511
			c0.392,2.082,0.658,4.208,0.944,6.307C50.622,106.414,55.436,148.112,54.401,152.226z M58.145,133.847
			c-0.138,0.43-0.738,0.432-0.875,0c-0.711-2.247-1.017-4.596-1.195-6.939c-0.161-2.112-0.214-4.231-0.348-6.345
			c-0.138-2.183-0.376-4.361-0.65-6.531c-0.422-3.346-0.928-6.683-1.271-10.037c-0.214-1.342-0.432-2.683-0.672-4.021
			c-0.274-1.525-0.519-3.065-0.591-4.614c-0.061-1.315,0.002-2.671,0.519-3.897c0.143-0.339,0.616-0.249,0.783,0
			c1.678,2.502,2.442,5.531,2.932,8.466c0.45,2.697,0.658,5.424,0.875,8.147c0.217,2.724,0.625,5.424,0.948,8.137
			c0.361,3.036,0.65,6.09,0.652,9.15C59.253,128.215,59.019,131.12,58.145,133.847z M65.463,154.949
			c-0.095,0.349-0.665,0.478-0.829,0.108c-1.521-3.44-1.574-7.353-1.718-11.049c-0.159-4.042-0.645-8.074-1.083-12.093
			c-0.443-4.062-0.823-8.124-1.09-12.202c-0.388-5.917-0.629-11.842-0.974-17.761c-0.51-3.4-0.86-6.823-0.642-10.258
			c0.024-0.377,0.486-0.619,0.774-0.321c1.129,1.167,1.502,2.933,1.767,4.479c0.293,1.71,0.398,3.444,0.69,5.153
			c0.789,4.607,1.569,9.217,2.189,13.851c0.62,4.638,1.01,9.282,1.239,13.955c0.221,4.521,0.526,9.042,0.659,13.566
			C66.568,146.572,66.572,150.867,65.463,154.949z M71.249,153.417c-0.136,0.377-0.599,0.438-0.829,0.108
			c-0.898-1.292-1.169-2.941-1.333-4.472c-0.183-1.707-0.173-3.424-0.22-5.138c-0.051-1.87-0.287-3.738-0.408-5.605
			c-0.136-2.101-0.233-4.204-0.313-6.308c-0.162-4.257-0.226-8.517-0.424-12.773c-0.215-4.612-0.503-9.223-0.708-13.836
			c-0.384-2.679-0.702-5.37-0.816-8.075c-0.124-2.939-0.039-5.964,0.772-8.81c0.111-0.391,0.615-0.425,0.829-0.108
			c1.184,1.752,1.558,3.893,1.888,5.941c0.372,2.306,0.664,4.614,0.956,6.932c0.577,4.596,1.257,9.209,1.534,13.836
			c0.28,4.66,0.234,9.331,0.172,13.996c-0.031,2.323-0.122,4.658-0.059,6.98c0.052,1.935,0.175,3.866,0.226,5.801
			C72.62,145.733,72.571,149.757,71.249,153.417z M77.035,154.949c-0.132,0.455-0.724,0.405-0.874,0
			c-1.428-3.832-0.865-8.062-1.031-12.058c-0.182-4.378-0.38-8.752-0.457-13.135c-0.078-4.424-0.089-8.848-0.176-13.272
			c-0.098-5.008-0.207-10.016-0.286-15.024c-0.228-1.442-0.43-2.889-0.576-4.343c-0.327-3.249-0.425-6.597,0.314-9.799
			c0.09-0.39,0.635-0.43,0.829-0.108c1.159,1.929,1.48,4.196,1.659,6.402c0.203,2.52,0.588,5.021,0.819,7.54
			c0.433,4.725,0.66,9.483,0.682,14.228c0.021,4.819-0.166,9.636-0.223,14.454c-0.027,2.284-0.037,4.571,0.05,6.854
			c0.078,2.055,0.205,4.107,0.276,6.162C78.178,146.884,78.167,151.039,77.035,154.949z M86.027,147.822
			c-0.145,1.556-0.446,3.132-1.211,4.512c-0.14,0.253-0.512,0.298-0.712,0.092c-0.99-1.022-1.275-2.51-1.402-3.877
			c-0.154-1.652-0.046-3.321,0.073-4.972c0.264-3.676,0.136-7.346,0.032-11.027c-0.129-4.566-0.176-9.132-0.267-13.699
			c-0.12-6.109-0.277-12.217-0.367-18.326c-0.283-1.92-0.522-3.85-0.6-5.788c-0.081-2.023-0.088-4.344,0.928-6.166
			c0.153-0.274,0.495-0.273,0.712-0.092c1.412,1.179,1.612,3.248,1.723,4.961c0.154,2.383,0.34,4.765,0.441,7.152
			c0.209,4.933,0.142,9.868,0.218,14.803c0.077,4.992,0.022,9.984-0.013,14.976c-0.016,2.237-0.108,4.492,0.038,6.726
			c0.114,1.751,0.292,3.496,0.401,5.247C86.136,144.166,86.197,146.003,86.027,147.822z M93.264,94.489
			c-0.039,2.377-0.047,4.755-0.097,7.132c-0.195,9.235-0.659,18.461-0.76,27.698c-0.049,4.466,0.058,8.921,0.294,13.38
			c0.206,3.888,0.449,7.963-0.691,11.739c-0.129,0.426-0.751,0.436-0.875,0c-1.111-3.926-1.527-8.023-1.716-12.088
			c-0.174-3.742-0.141-7.488-0.139-11.233c0.001-3.999-0.091-7.995-0.046-11.994c0.08-7.069,0.409-14.132,0.898-21.184
			c-0.015-0.809-0.013-1.619,0.014-2.429c0.085-2.554,0.319-5.326,1.546-7.619c0.197-0.368,0.704-0.236,0.829,0.108
			C93.272,90.062,93.299,92.319,93.264,94.489z M100.537,101.57c-0.095,2.032-0.229,4.063-0.339,6.094
			c-0.106,1.959-0.136,3.914-0.187,5.874c-0.118,4.538-0.457,9.067-0.748,13.596c-0.275,4.28-0.466,8.559-0.475,12.849
			c-0.008,3.926-0.015,7.985-1.332,11.734c-0.154,0.438-0.715,0.42-0.875,0c-1.317-3.47-0.808-7.319-0.867-10.941
			c-0.033-1.992-0.168-3.983-0.188-5.977c-0.02-2.013-0.002-4.026,0.035-6.038c0.074-4.016,0.206-8.031,0.381-12.045
			c0.351-8.064,0.92-16.12,2.001-24.122c0.017-0.127,0.075-0.213,0.151-0.265c0.211-1.4,0.494-2.789,0.87-4.159
			c0.115-0.417,0.777-0.447,0.875,0C100.8,92.559,100.745,97.104,100.537,101.57z M107.145,96.131
			c-0.069,4.313-0.332,8.61-0.566,12.915c-0.235,4.328-0.484,8.656-0.855,12.975c-0.164,1.907-0.412,3.811-0.508,5.723
			c-0.079,1.571-0.113,3.143-0.198,4.713c-0.159,2.936-0.351,6.195-1.822,8.817c-0.189,0.336-0.736,0.269-0.829-0.108
			c-0.83-3.365-0.997-6.852-0.921-10.305c0.07-3.175,0.344-6.34,0.544-9.508c0.201-3.182,0.28-6.372,0.358-9.56
			c0.124-5.067,0.216-10.145,0.661-15.194c-0.03-1.564-0.005-3.128,0.127-4.685c0.108-1.27,0.275-2.556,0.647-3.778
			c0.282-0.928,0.694-1.883,1.424-2.549c0.179-0.162,0.466-0.183,0.642,0c1.147,1.195,1.322,2.969,1.352,4.548
			C107.238,92.129,107.176,94.136,107.145,96.131z M113.657,96.233c-0.062,2.637-0.379,5.255-0.513,7.887
			c-0.15,2.932-0.001,5.886-0.014,8.821c-0.014,3.191-0.119,6.389-0.571,9.552c-0.415,2.907-1.148,5.804-2.556,8.4
			c-0.195,0.359-0.713,0.246-0.829-0.108c-0.775-2.364-0.932-4.91-0.921-7.382c0.022-4.782,0.856-9.493,1.126-14.256
			c0.238-4.203,0.549-8.401,0.875-12.597c-0.005-0.382-0.015-0.764-0.011-1.146c0.023-2.48,0.194-5.084,1.143-7.404
			c0.144-0.352,0.606-0.466,0.829-0.108C113.713,90.293,113.721,93.5,113.657,96.233z M120.825,96.283
			c-0.205,2.793-0.666,5.565-0.761,8.366c-0.091,2.693-0.092,5.389-0.189,8.082c-0.103,2.85-0.296,5.707-0.79,8.519
			c-0.442,2.517-1.141,5.043-2.445,7.26c-0.182,0.31-0.767,0.294-0.829-0.108c-0.437-2.824-0.485-5.682-0.33-8.532
			c0.138-2.543,0.425-5.074,0.721-7.602c0.297-2.535,0.542-5.062,0.706-7.609c0.253-3.949,0.453-7.904,0.824-11.843
			c0.003-0.126-0.001-0.252,0.004-0.378c0.044-1.208,0.156-2.44,0.44-3.624c0.001-0.005,0.001-0.009,0.002-0.014
			c0.006-0.046,0.019-0.086,0.034-0.125c0.172-0.68,0.399-1.344,0.708-1.976c0.142-0.29,0.646-0.303,0.783,0
			C121.062,89.681,121.061,93.076,120.825,96.283z M127.714,93.243c-0.101,2.837-0.327,5.672-0.536,8.502
			c-0.234,3.163-0.522,6.321-0.871,9.473c-0.688,6.216-1.612,12.407-2.814,18.545c-0.101,0.517-0.885,0.374-0.891-0.121
			c-0.034-3.193,0.091-6.385,0.315-9.57c0.619-8.783,1.97-17.505,2.674-26.279c-0.124-3.364-0.134-6.751,0.601-10.05
			c0.096-0.432,0.779-0.432,0.875,0C127.757,86.856,127.827,90.07,127.714,93.243z M135.309,90.689
			c-0.173,2.726-0.514,5.442-0.78,8.16c-0.309,3.159-0.567,6.323-0.926,9.477c-0.703,6.176-1.701,12.539-4.54,18.141
			c-0.215,0.425-0.825,0.192-0.845-0.229c-0.135-2.869,0.101-5.738,0.477-8.581c0.334-2.527,0.772-5.038,1.187-7.553
			c0.43-2.607,0.755-5.215,1.051-7.841c0.495-4.385,1.055-8.763,1.628-13.138c0.11-2.488,0.339-4.97,0.779-7.423
			c0.069-0.383,0.659-0.44,0.829-0.108C135.572,84.342,135.5,87.69,135.309,90.689z M143.684,86.404
			c-0.118,1.774-0.34,3.542-0.518,5.311c-0.152,1.507-0.344,3.012-0.605,4.505c-0.285,1.631-0.647,3.259-1.193,4.825
			c-0.465,1.336-1.061,2.656-1.995,3.733c-0.238,0.274-0.656,0.1-0.758-0.2c-0.494-1.457-0.582-3.019-0.502-4.545
			c0.145-2.754,0.795-5.452,1.177-8.177c0.404-2.883,0.578-5.851,1.538-8.621c0.041-0.118,0.114-0.198,0.201-0.248
			c0.271-1.132,0.654-2.234,1.206-3.264c0.197-0.367,0.705-0.237,0.829,0.108C143.813,81.924,143.83,84.21,143.684,86.404z"/>
		<path style="fill:#D1D2D3;" d="M14.312,76.887c3.055,0.27,3.173,5.686,6.424,5.902c0.949,0.063,1.787-0.482,2.601-0.889
			c0.894-0.447,1.838-0.79,2.855-0.703c2.144,0.183,3.479,1.58,4.928,3.006c0.733,0.721,1.532,1.429,2.532,1.743
			c1.335,0.418,2.686,0.165,3.935-0.391c1.266-0.564,2.493-1.29,3.894-1.454c1.542-0.181,3.089,0.161,4.527,0.703
			c2.886,1.088,5.57,2.539,8.626,3.141c2.478,0.488,4.987,0.368,7.48,0.071c1.484-0.177,2.96-0.422,4.443-0.604
			c1.476-0.181,2.962-0.081,4.425,0.163c2.961,0.493,5.789,1.609,8.77,1.998c1.527,0.199,3.034,0.152,4.544-0.147
			c1.539-0.304,2.964-0.938,4.401-1.546c1.342-0.569,2.709-1.089,4.165-1.272c1.602-0.202,3.204-0.059,4.786,0.225
			c1.556,0.278,3.136,0.812,4.72,0.868c1.45,0.051,2.881-0.158,4.281-0.527c2.53-0.668,4.918-1.803,7.486-2.336
			c1.323-0.274,2.679-0.391,4.028-0.28c1.489,0.122,2.926,0.472,4.432,0.454c1.437-0.017,2.837-0.297,4.193-0.767
			c1.437-0.498,2.757-1.232,4.146-1.84c1.961-0.86,3.814-1.034,5.938-0.936c1.294,0.06,2.578,0.189,3.864-0.038
			c1.048-0.185,2.056-0.538,3.017-0.991c1.854-0.874,3.555-2.041,5.456-2.82c0.865-0.355,1.746-0.594,2.637-0.733
			c0.452-1.936,0.911-3.871,1.384-5.803c0.26-1.062,0.561-2.115,0.854-3.17c-10.026,0.155-20.06,0.054-30.086,0.054H67.652
			c-9.439,0-18.878,0.003-28.316-0.001c-4.719-0.002-9.438-0.004-14.156-0.006c-4.363-0.002-8.756,0.127-13.117-0.085
			c0.296,1.068,0.601,2.133,0.864,3.208C13.4,73.013,13.86,74.949,14.312,76.887z"/>
	</g>
	<g>
		<path style="fill:#AA6821;" d="M159.981,46.382c-0.275-1.602-0.654-3.184-1.064-4.756c-0.355-1.361-0.773-2.662-1.478-3.887
			c-0.66-1.146-1.492-2.178-2.347-3.182c-0.928-1.089-1.83-2.179-2.667-3.34c-1.684-2.336-3.352-4.597-5.753-6.251
			c-2.294-1.58-4.92-2.538-7.488-3.569c-2.97-1.193-5.876-2.544-8.705-4.04c-2.529-1.337-4.92-2.881-7.383-4.33
			c-2.305-1.356-4.832-2.727-7.529-3.023c-0.409-0.045-0.804-0.057-1.204-0.039c-1.303-0.29-2.554-0.77-3.739-1.389
			c-1.276-0.667-2.533-1.412-3.859-1.977c-1.574-0.67-3.271-1.128-4.907-1.618c-1.688-0.506-3.392-0.965-5.118-1.321
			c-6.929-1.428-14.168-1.448-21.18-0.708c-1.773,0.187-3.541,0.424-5.302,0.704C68.522,3.93,66.8,4.288,65.061,4.536
			c-3.392,0.484-6.834,0.601-10.19,1.33c-3.243,0.705-6.164,2.053-9.061,3.639c-2.554,1.398-5.145,2.658-7.821,3.806
			c-1.614,0.693-3.251,1.387-4.868,2.13c-2.727,1.15-5.374,2.468-7.737,4.261c-0.691,0.524-1.34,1.099-1.969,1.697
			c-0.047,0.041-0.095,0.08-0.141,0.122c-0.515,0.464-0.996,0.968-1.459,1.483c-0.007,0.007-0.005,0.013-0.009,0.019
			c-0.818,0.865-1.616,1.75-2.428,2.608c-2.016,2.129-4.121,4.142-6.305,6.097c-3.905,3.494-8.125,7.409-9.778,12.544
			c-0.846,2.626-0.968,5.402-0.754,8.135c0.109,1.401,0.301,2.793,0.517,4.18c0.225,1.443,0.317,2.898,0.52,4.343
			c0.388,2.767,1.733,5.23,3.492,7.37c1.704,2.073,3.878,3.636,6.15,5.028c1.169,0.716,2.371,1.376,3.54,2.092
			c1.059,0.649,2.119,1.323,3.243,1.855c2.338,1.106,4.959,1.713,7.528,1.945c1.31,0.118,2.621,0.048,3.932,0.112
			c1.563,0.076,3.105,0.491,4.645,0.751c3.038,0.512,6.095,0.918,9.118,1.512c5.97,1.173,11.835,2.919,17.922,3.415
			c3.088,0.252,6.193,0.197,9.284,0.057c3.092-0.14,6.188-0.315,9.276-0.528c6.31-0.436,12.579-1.341,18.895-1.699
			c1.526-0.087,3.054-0.147,4.581-0.207c0.038-0.002,0.076-0.012,0.113-0.027c0.141,0.026,0.282,0.05,0.426,0.062
			c0.495,0.044,0.989,0.045,1.485,0.038c0.939-0.013,1.878-0.043,2.816-0.093c1.824-0.098,3.646-0.253,5.46-0.475
			c3.63-0.446,7.15-1.255,10.636-2.355c3.401-1.072,6.765-2.292,10.258-3.04c3.483-0.746,7.165-1.041,10.501-2.35
			c1.67-0.655,3.269-1.524,4.723-2.575c0.886-0.64,1.756-1.32,2.69-1.888c0.107,0.019,0.241-0.013,0.35-0.119
			c0.069-0.067,0.139-0.135,0.208-0.202c0.377-0.203,0.765-0.384,1.17-0.535c0.307-0.113,0.376-0.644-0.048-0.557
			c-0.003,0.001-0.007,0.002-0.01,0.003c1.308-1.314,2.545-2.724,3.346-4.389c0.602-1.251,1.035-2.585,1.238-3.959
			c0.206-1.395,0.216-2.822,0.23-4.229C160.81,52.755,160.52,49.523,159.981,46.382z"/>
		<path style="fill:#FFD6A2;" d="M159.894,57.848c-0.1,1.357-0.237,2.7-0.622,4.01c-0.708,2.412-2.06,4.372-3.761,6.184
			c-0.278,0.296-0.549,0.595-0.816,0.897c-0.92,0.407-1.762,0.997-2.571,1.59c-1.286,0.943-2.565,1.812-4.004,2.509
			c-3.231,1.564-6.847,1.955-10.334,2.629c-3.47,0.671-6.807,1.764-10.164,2.846c-3.419,1.101-6.844,2.032-10.401,2.565
			c-2.073,0.311-4.158,0.523-6.25,0.656c-1.035,0.066-2.072,0.114-3.109,0.155c-0.507,0.02-1.014,0.03-1.52,0.07
			c-0.28,0.022-0.554,0.067-0.828,0.113c-0.033-0.015-0.074-0.026-0.128-0.027c-6.157-0.175-12.331,0.771-18.451,1.318
			c-3.024,0.27-6.053,0.43-9.083,0.612c-3.1,0.187-6.202,0.386-9.309,0.405c-3.044,0.019-6.077-0.162-9.088-0.614
			c-2.94-0.441-5.851-1.046-8.757-1.668c-2.935-0.628-5.868-1.285-8.836-1.742c-1.521-0.234-3.041-0.491-4.545-0.82
			c-1.46-0.319-2.925-0.689-4.405-0.901c-1.332-0.191-2.676-0.101-4.016-0.152c-1.26-0.048-2.518-0.209-3.754-0.457
			c-1.265-0.254-2.512-0.604-3.728-1.036c-1.216-0.431-2.344-1.005-3.492-1.588c-2.419-1.229-4.862-2.389-7.033-4.042
			c-1.088-0.829-2.101-1.741-2.938-2.827c-0.833-1.08-1.476-2.246-2.066-3.47c-0.618-1.282-1.163-2.543-1.406-3.954
			c-0.238-1.38-0.286-2.784-0.493-4.168c-0.412-2.763-0.848-5.528-0.708-8.331c0.143-2.867,0.959-5.527,2.482-7.961
			c1.391-2.224,3.179-4.152,5.078-5.95c1.949-1.845,4.024-3.554,5.954-5.42c2.13-2.06,4.088-4.29,6.118-6.447
			c1.162-1.234,2.368-2.364,3.681-3.378c3.103-1.934,6.507-3.381,9.91-4.787c2.578-1.066,5.161-2.142,7.632-3.444
			c2.811-1.482,5.539-3.106,8.557-4.151c3.243-1.123,6.711-1.355,10.099-1.727c3.451-0.379,6.857-1.056,10.307-1.445
			c7.005-0.79,14.15-0.876,21.123,0.253c3.417,0.554,6.708,1.591,10.011,2.598c1.516,0.462,2.984,0.97,4.421,1.64
			c1.291,0.602,2.586,1.232,3.948,1.66c0.691,0.217,1.385,0.355,2.106,0.424c0.061,0.006,0.128-0.03,0.184-0.081
			c4.861,1.019,8.889,4.224,13.144,6.638c2.672,1.516,5.427,2.884,8.243,4.112c2.58,1.126,5.287,2.007,7.78,3.325
			c1.214,0.642,2.368,1.4,3.41,2.297c1.065,0.917,1.967,2.002,2.806,3.125c0.833,1.115,1.611,2.272,2.469,3.369
			c0.826,1.056,1.749,2.032,2.572,3.091c0.783,1.007,1.491,2.085,1.978,3.269c0.559,1.359,0.865,2.835,1.199,4.263
			c0.721,3.08,1.419,6.227,1.558,9.398C160.112,54.806,160.006,56.33,159.894,57.848z"/>
		<path style="opacity:0.65;fill:#FFD6A2;" d="M160.045,53.283c-0.139-3.171-0.837-6.318-1.558-9.398
			c-0.334-1.428-0.64-2.904-1.199-4.263c-0.487-1.184-1.195-2.261-1.978-3.269c-0.823-1.059-1.746-2.035-2.572-3.091
			c-0.858-1.097-1.636-2.253-2.469-3.369c-0.839-1.123-1.741-2.208-2.806-3.125c-1.041-0.897-2.196-1.655-3.41-2.297
			c-2.493-1.318-5.199-2.199-7.78-3.325c-2.816-1.229-5.57-2.596-8.243-4.112c-4.255-2.414-8.283-5.619-13.144-6.638
			c-0.056,0.051-0.123,0.087-0.184,0.081c-0.72-0.068-1.415-0.207-2.106-0.424c-1.362-0.428-2.657-1.058-3.948-1.66
			c-1.437-0.67-2.906-1.178-4.421-1.64c-3.303-1.006-6.594-2.044-10.011-2.598c-6.973-1.129-14.118-1.043-21.123-0.253
			c-3.45,0.389-6.856,1.066-10.307,1.445C59.4,5.719,55.932,5.951,52.688,7.074c-3.018,1.045-5.746,2.669-8.557,4.151
			c-2.47,1.302-5.053,2.378-7.632,3.444c-3.403,1.406-6.807,2.853-9.91,4.787c-1.314,1.014-2.52,2.144-3.681,3.378
			c-2.03,2.157-3.988,4.387-6.118,6.447c-1.93,1.866-4.005,3.575-5.954,5.42c-1.899,1.798-3.687,3.726-5.078,5.95
			c-1.523,2.435-2.339,5.095-2.482,7.961c-0.14,2.804,0.296,5.569,0.708,8.331c0.207,1.384,0.255,2.788,0.493,4.168
			c0.243,1.411,0.789,2.673,1.406,3.954c0.59,1.224,1.233,2.391,2.066,3.47c0.837,1.085,1.85,1.998,2.938,2.827
			c2.171,1.654,4.614,2.814,7.033,4.042c1.148,0.583,2.276,1.156,3.492,1.588c1.216,0.431,2.463,0.782,3.728,1.036
			c1.236,0.248,2.494,0.409,3.754,0.457c1.34,0.051,2.684-0.039,4.016,0.152c1.48,0.212,2.945,0.582,4.405,0.901
			c1.504,0.329,3.024,0.586,4.545,0.82c2.968,0.457,5.901,1.114,8.836,1.742c2.906,0.621,5.817,1.226,8.757,1.668
			c3.012,0.452,6.044,0.633,9.088,0.614c3.107-0.02,6.209-0.219,9.31-0.405c3.031-0.182,6.059-0.341,9.083-0.612
			c6.12-0.547,12.294-1.494,18.451-1.318c0.054,0.002,0.095,0.012,0.128,0.027c0.274-0.046,0.548-0.091,0.828-0.113
			c0.506-0.04,1.013-0.05,1.52-0.07c1.036-0.042,2.073-0.09,3.109-0.155c2.091-0.133,4.177-0.345,6.25-0.656
			c3.557-0.534,6.981-1.464,10.401-2.565c3.358-1.082,6.695-2.175,10.164-2.846c3.486-0.674,7.103-1.064,10.334-2.629
			c1.439-0.697,2.719-1.566,4.004-2.509c0.809-0.594,1.651-1.183,2.571-1.59c0.267-0.303,0.538-0.601,0.816-0.897
			c1.702-1.813,3.053-3.772,3.761-6.184c0.385-1.311,0.522-2.653,0.622-4.01C160.006,56.33,160.112,54.806,160.045,53.283z
			 M119.423,19.487c1.496-0.845,3.272-1.059,5.023-0.967c0.567-0.143,1.169-0.161,1.762-0.093c2.589,0.301,5.067,1.711,7.134,3.229
			c1.019,0.748,1.999,1.57,2.838,2.519c0.605,0.682,1.233,1.481,1.437,2.39c0.062,0.278-0.13,0.584-0.437,0.574
			c-1.396-0.045-2.788-0.214-4.159-0.48c-4.945-0.961-9.885-3.119-13.689-6.46C119.112,20.007,119.181,19.624,119.423,19.487z
			 M81.552,11.22c2.006-2.149,4.623-3.578,7.496-4.18c2.779-0.582,5.645-0.445,8.426,0.057c2.403,0.05,4.829,0.469,7.082,1.257
			c2.462,0.861,5.038,2.266,6.297,4.659c0.146,0.278,0.008,0.559-0.271,0.666c-1.251,0.48-2.608,0.545-3.925,0.694
			c-1.359,0.153-2.579,0.549-3.849,1.039c-1.129,0.436-2.264,0.87-3.465,1.062c-0.858,0.137-1.729,0.17-2.597,0.164
			c-1.823-0.012-3.648-0.206-5.442-0.523c-1.894-0.335-3.776-0.82-5.555-1.557c-1.538-0.636-3.058-1.459-4.197-2.698
			C81.381,11.675,81.38,11.405,81.552,11.22z M81.617,17.725c3.11,0.3,6.124,1.176,9.055,2.227c0.104,0.037,0.179,0.099,0.23,0.174
			c1.107,0.433,2.136,1.067,2.764,2.077c0.201,0.323-0.072,0.641-0.392,0.682c-2.047,0.266-4.032,0.868-6.005,1.455
			c-1.68,0.5-3.366,1.001-5.096,1.294c-1.687,0.286-3.35,0.242-5.02-0.144c-3.31-0.764-6.288-2.567-9.123-4.37
			c-0.258-0.164-0.331-0.639,0-0.783c1.678-0.73,3.391-1.384,5.16-1.862C75.935,17.734,78.783,17.451,81.617,17.725z M45.358,16.695
			c0.854-2.278,2.773-4.035,4.69-5.442c1.89-1.387,4.061-2.627,6.348-3.213c0.203-0.052,0.362,0.028,0.46,0.157
			c3.71-1.693,8.084-1.563,12.084-1.875c0.46-0.036,0.602,0.632,0.229,0.845c-1.263,0.72-2.549,1.405-3.742,2.239
			c-0.966,0.675-1.947,1.492-2.559,2.524c5.454-0.195,10.782-3.835,16.233-1.678c0.315,0.125,0.509,0.655,0.108,0.829
			c-2.557,1.111-5.13,2.188-7.652,3.378c-2.138,1.01-4.176,2.176-6.252,3.302c-0.899,0.488-1.833,0.932-2.816,1.225
			c-1.025,0.306-2.082,0.402-3.148,0.422c-4.629,0.087-9.179-1.191-13.667-2.156C45.451,17.205,45.276,16.916,45.358,16.695z
			 M58.189,45.64c-1.428,0.916-2.965,1.679-4.506,2.384c-3.209,1.467-6.552,2.642-9.94,3.622c-1.568,0.454-3.16,0.927-4.767,1.224
			c-1.352,0.25-2.618,0.13-3.818-0.58c-2.931-1.734-4.807-4.844-7.801-6.494c-2.149-1.184-4.845-1.781-7.15-0.695
			c-2.077,0.979-3.57,2.882-4.841,4.731c-1.469,2.137-2.737,4.405-4.236,6.522c-0.186,0.263-0.61,0.322-0.783,0
			c-1.203-2.233-2.557-4.517-3.05-7.037c-0.441-2.252-0.032-4.493,1.086-6.492c1.094-1.958,2.456-3.767,3.888-5.488
			c2.38-2.859,5.028-5.473,7.579-8.176c1.655-3.08,3.996-6.225,7.445-6.998c0.37-0.083,0.732,0.315,0.512,0.666
			c-0.91,1.455-1.841,2.9-2.627,4.427c-0.544,1.058-1.035,2.178-1.32,3.342c1.058-1.258,2.13-2.506,3.341-3.618
			c1.394-1.28,2.973-2.34,4.759-2.987c1.839-0.666,3.835-1.018,5.765-1.299c3.977-0.58,8.19-0.742,12.104,0.319
			c0.386,0.105,0.433,0.624,0.108,0.829c-1.619,1.022-3.563,1.867-4.712,3.449c0.678,0.034,1.356,0.071,2.034,0.121
			c1.908,0.14,3.814,0.354,5.694,0.717c1.639,0.317,3.34,0.701,4.857,1.417c0.973,0.459,1.827,1.135,2.406,2.05
			c0.591,0.933,0.866,2.035,1.057,3.111c0.459,2.59,0.791,5.572-0.388,8.025C60.301,43.951,59.316,44.918,58.189,45.64z
			 M147.681,47.544c-3.674,1.221-7.462,2.192-10.94,3.928c-2.232,1.115-3.938,2.998-5.81,4.608c-1.53,1.316-3.389,2.988-5.556,2.694
			c-2.363-0.321-4.504-1.537-6.807-2.096c-1.518-0.369-3.216-0.177-4.751-0.002c-1.686,0.192-3.36,0.483-5.056,0.584
			c-0.432,0.026-0.542-0.496-0.321-0.774c1.049-1.319,2.293-2.477,3.63-3.527c-1.78,0.352-3.484,1.302-4.962,2.273
			c-2.147,1.411-4.072,3.111-6.103,4.677c-2.322,1.79-5.152,2.857-7.996,3.484c-2.914,0.643-5.908,0.882-8.867,1.237
			c-2.768,0.332-5.827,0.722-8.515-0.24c-0.237-0.085-0.378-0.306-0.317-0.558c0.484-1.975,1.316-3.853,2.43-5.554
			c3.845-5.87,10.264-9.42,16.292-12.706c-0.906-0.413-1.904-0.568-2.91-0.562c-2.747,0.017-5.482,1.001-7.964,2.103
			c-2.313,1.026-4.539,2.255-6.671,3.617c-0.227,0.145-0.476,0.026-0.62-0.163c-0.658-0.86-1.551-1.5-2.527-1.954
			c-1.865-0.867-4.016-1.057-6.047-0.971c-1.943,0.082-3.887,0.439-5.72,1.092c-0.362,0.129-0.603-0.25-0.558-0.558
			c0.175-1.196,0.629-2.335,1.208-3.391c1.148-2.095,2.779-3.925,4.498-5.567c1.624-1.55,3.383-2.963,5.223-4.247
			c0.288-0.201,0.684,0.068,0.682,0.392c-0.007,1.188-0.243,2.533-0.02,3.746c1.182-2.208,2.734-4.214,4.556-5.932
			c3.618-3.41,8.293-5.723,13.245-6.306c4.35-0.513,8.677,0.486,12.317,2.816c0.481,0.102,0.825,0.359,1.076,0.74
			c0.232,0.172,0.461,0.348,0.686,0.532c0.304,0.248,0.112,0.616-0.182,0.721c0.071,0.196,0.161,0.382,0.307,0.531
			c0.256,0.263,0.613,0.318,0.964,0.332c2.019,0.078,4.016-0.75,5.958-1.19c0.516-0.117,0.77,0.541,0.35,0.829
			c-1.657,1.135-3.381,2.177-4.915,3.482c-1.206,1.026-2.521,2.335-2.911,3.925c3.38-2.077,6.523-4.517,9.872-6.643
			c3.151-2.001,6.547-3.747,10.239-4.467c1.613-0.315,3.333-0.513,4.972-0.305c1.245,0.158,2.465,0.477,3.66,0.855
			c2.959,0.937,5.862,2.238,8.476,3.917c1.149,0.739,2.273,1.566,3.214,2.562c0.741,0.784,1.424,1.72,1.637,2.798
			c0.047,0.239-0.067,0.491-0.317,0.558c-1.232,0.328-2.468,0.639-3.697,0.977c-2.478,0.682-4.96,1.453-7.264,2.607
			c-1.846,0.924-3.652,2.124-4.836,3.838c1.063-0.051,2.121-0.181,3.174-0.332c2.55-0.366,5.102-0.843,7.684-0.902
			c2.401-0.055,4.891,0.289,6.919,1.662C148.116,46.937,148.063,47.418,147.681,47.544z"/>
		<path style="opacity:0.65;fill:#DEBC8F;" d="M160.045,53.283c-0.139-3.171-0.837-6.318-1.558-9.398
			c-0.286-1.222-0.553-2.48-0.974-3.669c0.24,1.844-0.478,3.814-1.148,5.497c-0.733,1.841-1.652,3.599-2.411,5.429
			c-0.102,0.247-0.399,0.456-0.666,0.271c-1.379-0.953-2.921-1.61-4.581-1.873c-5.589-0.887-10.994,2.663-14.019,7.183
			c4.701-0.869,9.044-3.762,13.965-3.188c1.153,0.135,2.371,0.435,3.391,1.009c0.594,0.334,1.146,0.792,1.664,1.231
			c1.014,0.86,2.842,2.486,1.796,3.927c-0.523,0.72-1.384,1.131-2.161,1.514c-0.861,0.424-1.662,0.943-2.465,1.468
			c-1.995,1.305-3.937,2.687-5.938,3.982c-3.786,2.451-7.953,4.801-12.569,4.952c-2.203,0.072-4.417-0.132-6.593-0.464
			c-2.058-0.314-4.124-0.751-6.076-1.487c-0.266-0.1-0.435-0.397-0.271-0.666c0.666-1.096,1.45-2.121,2.343-3.041
			c0.829-0.855,1.762-1.678,2.717-2.39c1.531-1.14,3.357-1.806,4.954-2.833c-2.516-0.076-5.042,0.551-7.356,1.502
			c-1.129,0.464-2.332,0.989-3.26,1.797c-0.816,0.711-1.589,1.688-2.673,1.991c-0.964,0.27-2.08-0.114-2.99-0.419
			c-1.154-0.387-2.282-0.861-3.467-1.15c-0.67-0.164-1.314-0.194-1.971-0.185c-1.398,0.197-2.796,0.39-4.186,0.638
			c-2.774,0.496-5.41,1.308-7.954,2.524c-1.031,0.493-2.042,1.024-3.056,1.549c-1.058,0.548-2.095,1.104-3.257,1.401
			c-2.305,0.589-4.707,0.39-7.052,0.241c-1.999-0.126-3.973-0.017-5.97-0.035c-0.91-0.008-2.05-0.026-2.74-0.718
			c-0.712-0.715-0.683-1.865-0.607-2.795c0.16-1.97,0.598-3.929,1.251-5.792c0.761-2.169,1.855-4.207,3.311-5.991
			c1.108-1.358,2.684-2.305,3.842-3.613c-2.972,0.679-5.709,2.226-8.17,3.992c-1.592,1.143-2.676,2.774-3.926,4.261
			c-0.624,0.742-1.266,1.491-2.009,2.119c-0.528,0.446-1.118,0.858-1.837,0.857c-0.929-0.001-1.864-0.467-2.691-0.837
			c-0.939-0.42-1.883-0.961-2.892-1.197c-1.482-0.347-3.127-0.228-4.623-0.054c-0.965,0.112-1.924,0.277-2.881,0.448
			c3.148,0.7,6.256,1.62,8.979,3.402c1.221,0.799,2.34,1.76,3.406,2.754c0.984,0.918,2.003,1.944,2.626,3.152
			c0.24,0.465,0.451,1.009,0.4,1.543c-0.059,0.617-0.556,1.052-1.071,1.327c-0.602,0.321-1.272,0.494-1.922,0.687
			c-0.861,0.256-1.698,0.59-2.555,0.859c-1.415,0.444-2.899,0.8-4.393,0.685c-1.604-0.124-3.101-0.745-4.502-1.506
			c-3.49-1.895-6.581-4.45-10.018-6.441c-0.18,1.267-0.046,2.57-0.343,3.819c-0.77,3.238-4.781,1.062-6.509,0.03
			c-1.413-0.844-2.779-1.877-4.325-2.469c-1.466-0.561-3.179-0.903-4.276-2.116c-0.178-0.198-0.161-0.444,0-0.642
			c2.042-2.507,4.246-4.913,6.864-6.831c1.194-0.875,2.418-1.543,3.799-2.076c0.889-0.343,1.797-0.649,2.661-1.047
			c-2.675-0.234-5.359,0.102-7.941,0.869c-2.467,0.732-4.664,1.963-6.991,3.028c-2.186,1.001-4.447,1.745-6.881,1.518
			c-3.958-0.368-7.264-3.109-11.215-3.356c2.418,2.318,5.952,4.362,5.842,8.046c-0.008,0.252-0.203,0.446-0.453,0.453
			c-2.293,0.072-4.231-1.874-5.611-3.48c-1.461-1.701-2.69-3.556-3.739-5.511c0.113,1.049,0.185,2.103,0.364,3.143
			c0.243,1.411,0.789,2.673,1.406,3.954c0.59,1.224,1.233,2.391,2.066,3.47c0.837,1.085,1.85,1.998,2.938,2.827
			c2.171,1.654,4.614,2.814,7.033,4.042c1.148,0.583,2.276,1.156,3.492,1.588c1.216,0.431,2.463,0.782,3.728,1.036
			c1.236,0.248,2.494,0.409,3.754,0.457c1.34,0.051,2.684-0.039,4.016,0.152c1.48,0.212,2.945,0.582,4.405,0.901
			c1.504,0.329,3.024,0.586,4.545,0.82c2.968,0.457,5.901,1.114,8.836,1.742c2.906,0.621,5.817,1.226,8.757,1.668
			c3.012,0.452,6.044,0.633,9.088,0.614c3.107-0.02,6.209-0.219,9.31-0.405c3.031-0.182,6.059-0.341,9.083-0.612
			c6.12-0.547,12.294-1.494,18.451-1.318c0.054,0.002,0.095,0.012,0.128,0.027c0.274-0.046,0.548-0.091,0.828-0.113
			c0.506-0.04,1.013-0.05,1.52-0.07c1.036-0.042,2.073-0.09,3.109-0.155c2.091-0.133,4.177-0.345,6.25-0.656
			c3.557-0.534,6.981-1.464,10.401-2.565c3.358-1.082,6.695-2.175,10.164-2.846c3.486-0.674,7.103-1.064,10.334-2.629
			c1.439-0.697,2.719-1.566,4.004-2.509c0.809-0.594,1.651-1.183,2.571-1.59c0.267-0.303,0.538-0.601,0.816-0.897
			c1.702-1.813,3.053-3.772,3.761-6.184c0.385-1.311,0.522-2.653,0.622-4.01C160.006,56.33,160.112,54.806,160.045,53.283z"/>
		<path style="fill:#D3A27B;" d="M139.014,42.789c3.171-0.143,6.338,0.177,9.496,0.428c0.003-0.804-0.365-1.489-1.097-1.916
			c-0.876-0.511-1.949-0.657-2.945-0.716c-1.232-0.073-2.473,0.004-3.698,0.146c-0.986,0.114-1.992,0.261-2.985,0.465
			c-1.001,0.367-1.985,0.776-2.938,1.253c-0.898,0.45-1.786,0.967-2.598,1.575C134.424,43.288,136.697,42.894,139.014,42.789z"/>
		<g style="opacity:0.56;">
			<path style="fill:#D39677;" d="M39.734,56.828c-3.236,0.136-6.328,1.339-9.19,2.782c-1.316,0.664-2.434,1.623-3.391,2.739
				c-0.954,1.113-1.907,2.292-2.731,3.504c-0.146,0.215,0.145,0.35,0.308,0.212c1.044-0.88,1.838-2.034,2.742-3.051
				c0.958-1.077,1.958-2.064,3.236-2.757c2.723-1.475,5.791-2.916,8.923-3.131C39.793,57.115,39.958,56.819,39.734,56.828z"/>
			<path style="fill:#D39677;" d="M14.831,60.603c-1.654-1.148-3.455-1.816-5.439-2.105c-0.154-0.022-0.363,0.25-0.173,0.278
				c0.878,0.128,1.726,0.493,2.52,0.877c0.866,0.419,1.704,0.929,2.478,1.5c1.505,1.111,2.834,2.455,3.731,4.108
				c0.089,0.165,0.383-0.044,0.346-0.195C17.843,63.2,16.366,61.668,14.831,60.603z"/>
			<path style="fill:#D39677;" d="M45.674,20.536c-1.757-0.335-3.642-0.386-5.428-0.36c-1.811,0.027-3.646,0.27-5.381,0.796
				c-3.36,1.019-6.304,2.991-9.047,5.131c-0.186,0.145-0.036,0.37,0.161,0.229c2.691-1.925,5.718-3.683,8.914-4.603
				c1.685-0.486,3.427-0.675,5.173-0.767c1.806-0.095,3.617,0.066,5.419-0.031C45.644,20.923,45.95,20.589,45.674,20.536z"/>
			<path style="fill:#D39677;" d="M47.477,13.7c-1.462,0.25-2.81,1.017-3.919,1.98c-0.584,0.508-1.111,1.079-1.548,1.719
				c-0.205,0.301-0.389,0.615-0.548,0.943c-0.144,0.296-0.303,0.624-0.234,0.962c0.039,0.192,0.323,0.11,0.407,0.007
				c0.207-0.252,0.325-0.542,0.461-0.835c0.139-0.301,0.308-0.588,0.491-0.865c0.379-0.574,0.825-1.106,1.32-1.583
				c0.985-0.952,2.196-1.765,3.552-2.052C47.626,13.94,47.7,13.662,47.477,13.7z"/>
			<path style="fill:#D39677;" d="M66.134,33.036c-0.521-0.679-1.141-1.282-1.813-1.81c-1.396-1.096-2.955-1.942-4.484-2.832
				c-0.137-0.08-0.385,0.154-0.232,0.244c1.454,0.862,2.884,1.814,4.13,2.963c0.605,0.558,1.174,1.157,1.694,1.794
				c0.26,0.319,0.505,0.653,0.738,0.992c0.259,0.377,0.486,0.796,0.789,1.138c0.127,0.143,0.377-0.031,0.352-0.198
				C67.182,34.5,66.634,33.686,66.134,33.036z"/>
			<path style="fill:#D39677;" d="M77.981,28c-0.578,0.167-1.162,0.324-1.712,0.571c-0.551,0.248-1.081,0.57-1.561,0.936
				c-0.484,0.369-0.922,0.792-1.295,1.273c-0.33,0.427-0.839,1.041-0.789,1.617c0.02,0.229,0.283,0.184,0.407,0.06
				c0.391-0.39,0.604-0.933,0.929-1.375c0.315-0.429,0.689-0.823,1.091-1.171c0.824-0.712,1.868-1.328,2.912-1.645
				C78.118,28.219,78.189,27.939,77.981,28z"/>
			<path style="fill:#D39677;" d="M121.635,62.981c-0.577,0.167-1.162,0.324-1.712,0.571c-0.551,0.247-1.081,0.57-1.561,0.936
				c-0.484,0.368-0.922,0.792-1.295,1.273c-0.213,0.274-0.497,0.626-0.661,0.996c0.207,0.08,0.412,0.163,0.616,0.25
				c0.204-0.31,0.374-0.648,0.591-0.943c0.315-0.429,0.688-0.823,1.091-1.171c0.824-0.712,1.868-1.328,2.912-1.645
				C121.772,63.201,121.844,62.921,121.635,62.981z"/>
			<path style="fill:#D39677;" d="M68.484,67.04c-0.836-0.971-1.884-1.824-2.902-2.597c-1.066-0.81-2.191-1.527-3.413-2.077
				c-1.169-0.526-2.41-0.896-3.666-1.144c-1.315-0.26-2.65-0.374-3.964-0.624c-0.089-0.017-0.215,0.139-0.102,0.163
				c1.205,0.258,2.404,0.596,3.591,0.926c1.195,0.332,2.383,0.697,3.517,1.205c1.191,0.534,2.293,1.256,3.337,2.035
				c1.073,0.8,2.077,1.74,3.214,2.446C68.264,67.476,68.643,67.225,68.484,67.04z"/>
			<path style="fill:#D39677;" d="M80.111,52.262c-1.498,0.633-2.993,1.234-4.247,2.303c-0.653,0.556-1.175,1.203-1.56,1.972
				c-0.202,0.403-0.382,0.818-0.547,1.237c-0.161,0.409-0.352,0.814-0.45,1.243c-0.053,0.231,0.218,0.216,0.337,0.099
				c0.592-0.58,0.836-1.429,1.166-2.169c0.341-0.765,0.81-1.442,1.417-2.019c1.106-1.05,2.556-1.818,3.945-2.424
				C80.342,52.429,80.312,52.178,80.111,52.262z"/>
			<path style="fill:#D39677;" d="M106.786,26.107c1.446-0.867,2.97-1.598,4.522-2.254c0.499-0.211,1.004-0.415,1.51-0.614
				c2.382-1.022,4.875-1.769,7.467-2.04c0.4-0.042,0.802-0.068,1.204-0.087c1.415-0.183,2.835-0.336,4.25-0.527
				c-1.498-0.313-3.139-0.269-4.612-0.153c-1.909,0.15-3.788,0.537-5.61,1.124c-2.988,0.962-5.948,2.392-8.485,4.251
				c-0.324,0.237-0.645,0.484-0.957,0.743C106.31,26.398,106.547,26.25,106.786,26.107z"/>
			<path style="fill:#D39677;" d="M105.319,22.602c-0.128-0.496-0.541-0.933-0.875-1.301c-0.435-0.48-0.902-0.937-1.413-1.336
				c-0.87-0.679-1.989-1.391-3.146-1.214c-0.111,0.017-0.212,0.235-0.047,0.231c1.073-0.028,2.112,0.806,2.868,1.479
				c0.451,0.402,0.881,0.826,1.276,1.283c0.316,0.366,0.6,0.802,0.972,1.114C105.094,22.976,105.361,22.764,105.319,22.602z"/>
			<path style="fill:#D39677;" d="M84.134,7.54c-1.402-0.734-3.083-1.137-4.636-1.384c-1.416-0.225-2.922-0.275-4.327,0.049
				c-2.354,0.543-4.893,1.752-6.506,3.596c-0.164,0.187,0.09,0.317,0.235,0.16c0.789-0.854,1.838-1.403,2.881-1.886
				c1.099-0.509,2.267-0.916,3.461-1.133c1.382-0.251,2.808-0.162,4.187,0.066c1.495,0.248,2.964,0.756,4.473,0.902
				C84.046,7.924,84.335,7.646,84.134,7.54z"/>
			<path style="fill:#D39677;" d="M87.726,17.349c-0.349-0.249-0.783-0.369-1.178-0.531c-0.382-0.156-0.761-0.311-1.159-0.422
				c-0.379-0.106-0.773-0.183-1.167-0.184c-0.477-0.001-0.933,0.095-1.394,0.212c-0.112,0.029-0.163,0.223-0.012,0.189
				c0.81-0.186,1.657-0.027,2.417,0.281c0.346,0.14,0.686,0.3,1.025,0.456c0.395,0.181,0.772,0.374,1.21,0.412
				C87.643,17.776,87.928,17.493,87.726,17.349z"/>
			<path style="fill:#D39677;" d="M152.287,51.193c-1.257-0.74-2.631-1.474-4.009-1.96c-1.436-0.507-2.88-0.468-4.314,0.017
				c-1.483,0.502-2.852,1.298-4.097,2.24c-1.272,0.964-2.32,2.103-3.43,3.238c-0.175,0.179,0.084,0.307,0.235,0.16
				c1.045-1.017,2.232-1.953,3.417-2.802c1.178-0.844,2.455-1.572,3.831-2.038c0.678-0.23,1.364-0.393,2.084-0.368
				c0.709,0.025,1.395,0.217,2.063,0.443c1.314,0.446,2.566,1.187,3.941,1.428C152.16,51.577,152.51,51.324,152.287,51.193z"/>
			<path style="fill:#D39677;" d="M118.133,67.093c-1.067-0.896-2.602-1.336-3.942-1.606c-1.418-0.285-2.873-0.403-4.317-0.397
				c-1.495,0.006-3.008,0.1-4.476,0.393c-1.455,0.29-2.864,0.787-4.222,1.379c-1.582,0.689-3.08,1.557-4.603,2.365
				c-0.173,0.092-0.155,0.361,0.067,0.262c2.604-1.159,5.193-2.478,7.987-3.12c2.759-0.634,5.817-0.67,8.605-0.185
				c0.757,0.132,1.507,0.304,2.239,0.535c0.781,0.246,1.524,0.574,2.294,0.846C118,67.647,118.369,67.292,118.133,67.093z"/>
		</g>
		<path style="opacity:0.67;fill:#FFD6A2;" d="M42.22,23.839c-1.128-0.419-2.573,0.029-3.667,0.361
			c-0.916,0.278-1.813,0.602-2.698,0.956c-1.917,0.278-3.812,0.96-5.478,1.783c-1.013,0.501-1.957,1.034-2.779,1.81
			c-0.693,0.654-1.303,1.396-1.86,2.167c-0.556,0.769-1.06,1.601-1.396,2.491c-0.268,0.708-0.456,1.58-0.078,2.284
			c0.399,0.744,1.313,0.926,2.089,0.911c1.181-0.023,2.364-0.262,3.492-0.6c2.657-0.795,5.174-2.079,7.439-3.672
			c2.01-1.414,4.026-3.16,5.234-5.335C43.065,26.007,43.657,24.373,42.22,23.839z"/>
		<path style="opacity:0.67;fill:#FFD6A2;" d="M18.524,38.616c-0.365-0.558-1.02-0.799-1.656-0.867
			c-1.249-0.133-2.432,0.703-3.302,1.5c-1.084,0.993-1.974,2.312-2.469,3.697c-0.169,0.472-0.29,0.977-0.311,1.482
			c-0.147,0.467-0.261,0.942-0.324,1.418c-0.071,0.531-0.07,1.174,0.281,1.616c0.365,0.46,0.97,0.523,1.513,0.437
			c1.155-0.183,2.233-1.002,3.103-1.737c0.842-0.711,1.603-1.474,2.167-2.428c0.624-1.055,1.191-2.253,1.319-3.486
			C18.902,39.692,18.837,39.094,18.524,38.616z"/>
		<path style="opacity:0.67;fill:#FFD6A2;" d="M49.8,36.877c-0.163-0.916-0.773-1.768-1.521-2.306
			c-1.578-1.134-3.757-0.994-5.561-0.625c-1.868,0.382-3.741,1.076-5.435,1.95c-0.155,0.08-0.306,0.167-0.456,0.255
			c-0.732,0.248-1.445,0.54-2.114,0.892c-1.154,0.608-2.654,1.635-2.399,3.144c0.236,1.398,1.84,2.129,3.013,2.576
			c1.599,0.61,3.319,0.931,5.016,1.112c1.424,0.152,2.727,0.145,4.074-0.394c1.854-0.742,3.734-2.068,4.774-3.803
			C49.697,38.833,49.976,37.862,49.8,36.877z"/>
		<g>
			<path style="opacity:0.67;fill:#FFD6A2;" d="M57.97,11.149c-0.231-0.362-0.668-0.456-1.067-0.489
				c-0.462-0.039-0.94,0.023-1.401,0.152c-1.403,0.049-2.651,1.325-3.216,2.589c-0.06,0.135-0.048,0.364,0.046,0.484
				c0.602,0.768,1.829,0.635,2.668,0.448c1.045-0.233,2.202-0.744,2.82-1.661C58.108,12.245,58.268,11.615,57.97,11.149z"/>
		</g>
		<g>
			<path style="opacity:0.67;fill:#FFD6A2;" d="M101.366,10.435c-0.763-2.074-3.064-3.191-5.155-3.214
				c-1.116-0.012-2.218,0.181-3.275,0.521c-0.451,0.02-0.903,0.06-1.354,0.09c-1.375,0.091-2.798,0.159-4.125,0.554
				c-1.034,0.308-2.541,1.129-2.031,2.452c0.38,0.987,1.679,1.373,2.595,1.633c2.373,0.672,4.91,0.885,7.365,1.027
				c1.201,0.069,2.443,0.103,3.625-0.152C100.348,13.058,101.951,12.025,101.366,10.435z"/>
			<path style="fill:#EF61A3;" d="M99.624,11.557c-0.001,0.002-0.003,0.004-0.004,0.006c0.001,0,0.002-0.001,0.003-0.002
				c0.008-0.005,0.017-0.01,0.027-0.017c0.009-0.006,0.017-0.011,0.026-0.017c0.003-0.003,0.007-0.005,0.01-0.007
				c0.002-0.002,0.002-0.001,0.004-0.002c0.005-0.003,0.009-0.006,0.014-0.009c0,0,0,0-0.001,0
				C99.667,11.53,99.639,11.547,99.624,11.557z"/>
			<path style="fill:#EF61A3;" d="M99.619,11.56c-0.006,0.004-0.011,0.007-0.013,0.009c0.005-0.002,0.009-0.004,0.014-0.006
				C99.62,11.561,99.62,11.561,99.619,11.56z"/>
			<polygon style="fill:#EF61A3;" points="99.62,11.563 99.62,11.563 99.62,11.563 			"/>
			<polygon style="fill:#EF61A3;" points="99.62,11.563 99.62,11.563 99.62,11.563 			"/>
		</g>
		<path style="opacity:0.67;fill:#FFD6A2;" d="M94.993,30.103c-2.857-0.989-5.864-0.525-8.643,0.466
			c-2.664,0.95-5.435,2.469-7.113,4.811c-0.174,0.243-0.328,0.498-0.462,0.763c-0.611,0.738-1.156,1.536-1.63,2.381
			c-0.347,0.619-0.653,1.262-0.961,1.901c-0.29,0.601-0.571,1.201-0.685,1.863c-0.091,0.532-0.026,1.122,0.342,1.544
			c0.486,0.556,1.225,0.727,1.926,0.82c1.446,0.191,2.953-0.095,4.357-0.429c1.422-0.338,2.811-0.795,4.225-1.165
			c3.595-0.942,7.349-1.87,10.453-4.015c1.35-0.933,2.863-2.389,2.775-4.178C99.461,32.508,97.009,30.8,94.993,30.103z"/>
		<path style="opacity:0.67;fill:#FFD6A2;" d="M96.307,48.172c-2.14-0.352-4.334,0.436-6.189,1.451
			c-1.848,1.011-3.707,2.298-5.043,3.948c-0.136,0.168-0.254,0.332-0.362,0.501c-1.532,1.255-3.094,2.675-3.785,4.487
			c-0.257,0.673-0.373,1.531,0.086,2.149c0.416,0.561,1.122,0.745,1.78,0.817c1.678,0.185,3.475-0.31,5.073-0.766
			c3.101-0.886,6.094-2.014,8.652-4.035c1.454-1.149,3.13-2.745,3.256-4.722C99.897,50.041,98.128,48.471,96.307,48.172z"/>
		<path style="opacity:0.67;fill:#FFD6A2;" d="M133.423,33.643c-0.051-1.033-0.467-1.943-1.297-2.579
			c-0.826-0.633-1.891-0.878-2.903-0.996c-1.128-0.131-2.282-0.052-3.402,0.114c-0.727,0.108-1.487,0.272-2.192,0.54
			c-0.549,0.055-1.093,0.131-1.626,0.227c-1.93,0.346-3.721,1.125-5.362,2.184c-1.745,1.127-3.393,2.392-4.948,3.769
			c-0.898,0.795-1.837,1.57-2.667,2.438c-0.621,0.649-1.548,1.638-1.224,2.627c0.179,0.547,0.653,0.876,1.156,1.099
			c1.307,0.58,2.911,0.561,4.311,0.502c4.326-0.183,8.731-1.203,12.743-2.815c1.811-0.727,3.63-1.621,5.126-2.891
			C132.393,36.798,133.509,35.377,133.423,33.643z"/>
		<g>
			<polygon style="fill:#832990;" points="108.633,46.952 108.633,46.952 108.633,46.948 			"/>
			<polygon style="fill:#832990;" points="108.402,47.237 108.401,47.238 108.398,47.24 108.398,47.24 			"/>
			<path style="fill:#832990;" d="M108.853,47.243c-0.03-0.005-0.058-0.012-0.087-0.018c-0.005,0-0.011-0.001-0.016-0.001
				C108.846,47.253,108.868,47.251,108.853,47.243z"/>
			<path style="opacity:0.67;fill:#FFD6A2;" d="M110.807,46.424c-0.276-0.272-0.595-0.463-0.965-0.572
				c-0.036-0.028-0.079-0.049-0.134-0.049c-0.012,0-0.023,0.003-0.035,0.003c-0.395-0.087-0.817-0.106-1.212-0.014
				c-0.427,0.099-0.827,0.319-1.117,0.648c-0.342,0.192-0.649,0.441-0.867,0.771c-0.383,0.578-0.261,1.446,0.363,1.814
				c0.74,0.437,1.62,0.086,2.29-0.312c0.358-0.213,0.687-0.485,0.986-0.774c0.246-0.237,0.493-0.508,0.652-0.811
				C110.865,46.943,110.994,46.608,110.807,46.424z"/>
		</g>
		<path style="opacity:0.67;fill:#FFD6A2;" d="M135.389,47.976c-1.442-1.585-4.153-0.856-5.904-0.234
			c-0.375,0.024-0.745,0.068-1.089,0.114c-1.26,0.168-2.479,0.507-3.705,0.834c-2.444,0.653-5.208,1.346-6.427,3.822
			c-0.099,0.2-0.233,0.529-0.041,0.73c3.659,3.828,9.776,3.313,13.938,0.603c1.02-0.664,1.959-1.494,2.713-2.451
			C135.614,50.455,136.349,49.031,135.389,47.976z"/>
		<g>
			<path style="fill:#D38A4D;" d="M134.391,60.313c-0.703,0.763-1.462,1.765-1.879,2.841c0.309,0.031,0.615,0.043,0.885,0.048
				c1.253,0.023,2.508-0.142,3.729-0.419c1.096-0.249,2.189-0.586,3.197-1.089c0.533-0.266,1.109-0.59,1.55-1.026
				c0.365-0.606,0.59-1.289,0.446-1.942c-0.083-0.174-0.189-0.345-0.315-0.512c-0.512-0.68-1.288-0.997-2.127-0.982
				C137.767,57.271,135.755,58.834,134.391,60.313z"/>
			<path style="fill:#832990;" d="M138.682,61.718c0.005-0.003,0.009-0.005,0.014-0.007c0.005-0.003,0.009-0.005,0.017-0.011
				c0.035-0.023,0.072-0.043,0.108-0.065C138.796,61.632,138.682,61.714,138.682,61.718z"/>
		</g>
		<path style="opacity:0.48;fill:#F9E0B0;" d="M29.068,73.878c-0.196-0.373-0.551-0.669-0.898-0.897
			c-0.873-0.572-1.921-0.897-2.949-1.029c-0.936-0.12-2.098,0.065-2.594,0.952c-0.456,0.213-0.811,0.579-0.898,1.147
			c-0.144,0.947,0.734,1.489,1.476,1.828c0.949,0.434,2.008,0.659,3.051,0.679c1.027,0.021,2.244-0.211,2.778-1.199
			C29.293,74.879,29.324,74.364,29.068,73.878z"/>
		<path style="opacity:0.48;fill:#F9E0B0;" d="M34.7,74.453c-0.032-0.032-0.064-0.063-0.096-0.095
			c-0.082-0.053-0.173-0.079-0.271-0.079c-0.038,0.001-0.075-0.003-0.113-0.002c-0.04-0.029-0.084-0.052-0.135-0.066
			c-0.103-0.027-0.207-0.029-0.312-0.006c-0.12,0.027-0.23,0.075-0.331,0.146c-0.101,0.07-0.185,0.157-0.25,0.261
			c-0.07,0.102-0.097,0.212-0.113,0.332c-0.012,0.089,0.021,0.215,0.078,0.285c0.033,0.04,0.07,0.08,0.113,0.11
			c0.111,0.076,0.241,0.098,0.373,0.106c0.022,0.001,0.045,0.001,0.067,0c0.078-0.004,0.155-0.013,0.232-0.022
			c0.054-0.006,0.107-0.015,0.16-0.025c0.088-0.017,0.169-0.049,0.243-0.098c0.083-0.04,0.156-0.095,0.219-0.164
			c0.035-0.045,0.07-0.09,0.105-0.135c0.046-0.066,0.074-0.138,0.084-0.216c0.017-0.046,0.02-0.093,0.009-0.141
			C34.763,74.574,34.743,74.51,34.7,74.453z"/>
		<path style="opacity:0.48;fill:#F9E0B0;" d="M58.922,79.796c-0.26-0.842-1.211-1.318-1.955-1.649
			c-0.708-0.314-1.492-0.534-2.275-0.556c-0.029-0.007-0.058-0.017-0.087-0.024c-1.211-0.289-2.621,0.015-3.097,1.309
			c-0.173,0.471-0.16,0.991,0.087,1.43c0.217,0.385,0.614,0.615,1.006,0.783c0.846,0.364,1.857,0.402,2.765,0.367
			c0.908-0.035,2.007-0.101,2.834-0.528C58.579,80.732,59.073,80.288,58.922,79.796z"/>
		<path style="opacity:0.48;fill:#F9E0B0;" d="M62.046,77.803c-0.361,0-0.75,0.254-0.863,0.605c-0.104,0.322,0.089,0.629,0.44,0.629
			c0.361,0,0.751-0.255,0.863-0.605C62.59,78.109,62.397,77.803,62.046,77.803z"/>
		<path style="opacity:0.48;fill:#F9E0B0;" d="M47.388,76.536c-0.015-0.123-0.053-0.234-0.104-0.347
			c-0.052-0.114-0.112-0.217-0.194-0.312c-0.17-0.198-0.37-0.37-0.604-0.487c-0.109-0.069-0.228-0.104-0.357-0.104
			c-0.11-0.004-0.215,0.014-0.316,0.055c-0.115,0.03-0.221,0.081-0.318,0.153c-0.13,0.09-0.237,0.202-0.322,0.335
			c-0.062,0.117-0.131,0.241-0.168,0.37c-0.055,0.191-0.065,0.31-0.039,0.502c0.003,0.02,0.007,0.038,0.013,0.057
			c0.02,0.056,0.054,0.13,0.083,0.182c0.005,0.008,0.01,0.017,0.016,0.025c0.055,0.075,0.13,0.151,0.214,0.198
			c0.092,0.052,0.192,0.098,0.293,0.13c0.054,0.017,0.11,0.03,0.167,0.04c0.084,0.05,0.175,0.088,0.265,0.126
			c0.065,0.027,0.131,0.052,0.197,0.079c0.06,0.009,0.119,0.017,0.179,0.026c0.065-0.006,0.13-0.013,0.194-0.019
			c0.067-0.022,0.133-0.043,0.2-0.065c0.106-0.043,0.2-0.104,0.281-0.184c0.06-0.042,0.111-0.094,0.15-0.156
			c0.048-0.049,0.084-0.106,0.107-0.171c0.035-0.054,0.055-0.113,0.061-0.177C47.41,76.709,47.411,76.623,47.388,76.536z"/>
		<path style="opacity:0.48;fill:#F9E0B0;" d="M62.598,70.296c-0.469-0.279-1.073-0.363-1.611-0.326
			c-0.126,0.009-0.255,0.026-0.383,0.049c-0.583-0.069-1.181-0.031-1.687,0.304c-0.37,0.244-0.621,0.63-0.678,1.07
			c-0.042,0.327,0.043,0.729,0.264,0.981c0.518,0.589,1.413,0.585,2.113,0.384c0.462-0.132,0.913-0.319,1.302-0.606
			c0.367-0.272,0.774-0.666,0.875-1.132C62.849,70.762,62.865,70.455,62.598,70.296z"/>
		<path style="opacity:0.48;fill:#F9E0B0;" d="M74.816,77.965c-0.1-0.073-0.215-0.124-0.329-0.171
			c-0.112-0.046-0.237-0.059-0.356-0.071c-0.061-0.006-0.116,0.003-0.179,0.01c-0.062,0.006-0.126,0.009-0.187,0.023
			c-0.022,0.005-0.044,0.015-0.066,0.021c-0.077-0.027-0.153-0.057-0.232-0.073c-0.22-0.044-0.414-0.007-0.608,0.103
			c-0.202,0.114-0.352,0.275-0.437,0.493c-0.091,0.235-0.12,0.47-0.088,0.718c0.014,0.103,0.062,0.202,0.111,0.292
			c0.011,0.021,0.024,0.039,0.04,0.056c0.05,0.055,0.105,0.113,0.165,0.158c0.17,0.126,0.401,0.176,0.608,0.184
			c0.119,0.004,0.241-0.011,0.357-0.032c0.13-0.023,0.258-0.07,0.38-0.116c0.14-0.053,0.272-0.134,0.397-0.212
			c0.134-0.084,0.254-0.194,0.368-0.301c0.086-0.083,0.151-0.179,0.194-0.288c0.054-0.092,0.084-0.192,0.09-0.301
			C75.046,78.26,74.983,78.086,74.816,77.965z"/>
		<path style="opacity:0.48;fill:#F9E0B0;" d="M92.389,76.33c-1.28-0.241-2.674-0.243-3.939,0.09
			c-0.577,0.152-1.13,0.379-1.601,0.742c-0.469,0.176-0.855,0.491-1.018,1.023c-0.163,0.534,0.037,1.16,0.41,1.561
			c0.367,0.393,0.89,0.602,1.401,0.738c1.273,0.34,2.703,0.36,3.994,0.116c1.2-0.226,2.85-0.889,2.965-2.314
			C94.699,77.076,93.373,76.516,92.389,76.33z"/>
		<path style="opacity:0.48;fill:#F9E0B0;" d="M113.979,75.56c-0.529-0.544-1.278-0.888-2.011-1.062
			c-0.845-0.201-1.85-0.144-2.545,0.397c-0.232,0.038-0.46,0.104-0.672,0.208c-0.688,0.337-1.18,1.08-0.886,1.849
			c0.254,0.667,0.844,1.011,1.49,1.242c0.675,0.242,1.428,0.349,2.144,0.335c0.833-0.017,1.661-0.197,2.284-0.783
			C114.419,77.148,114.625,76.224,113.979,75.56z"/>
		<path style="opacity:0.48;fill:#F9E0B0;" d="M124.811,74.766c-0.029-0.064-0.054-0.132-0.092-0.192
			c-0.061-0.096-0.193-0.184-0.302-0.211c-0.064-0.009-0.129-0.019-0.193-0.028c-0.01,0-0.019,0.001-0.029,0.002
			c-0.124,0.008-0.249,0.022-0.373,0.037c-0.06,0.007-0.12,0.012-0.179,0.023c-0.008,0.002-0.017,0.002-0.026,0.004
			c-0.002,0-0.004-0.001-0.006-0.001c-0.033,0.001-0.066,0.004-0.098,0.009c-0.065,0-0.127,0.013-0.186,0.04
			c-0.068,0.015-0.13,0.043-0.187,0.083c-0.038,0.021-0.076,0.042-0.113,0.064c-0.115,0.08-0.21,0.179-0.285,0.297
			c-0.066,0.103-0.104,0.215-0.115,0.336c-0.008,0.111,0.018,0.212,0.079,0.304c0.065,0.089,0.152,0.149,0.258,0.178
			c0.235,0.088,0.486,0.087,0.731,0.123l-0.081-0.012c0.101,0.022,0.202,0.02,0.304-0.007c0.168-0.034,0.294-0.102,0.437-0.193
			c0.018-0.011,0.036-0.022,0.054-0.034c0.056-0.048,0.112-0.096,0.168-0.144c0.075-0.072,0.131-0.156,0.169-0.251
			c0.034-0.053,0.054-0.111,0.06-0.174C124.833,74.936,124.835,74.852,124.811,74.766z"/>
		<path style="opacity:0.48;fill:#F9E0B0;" d="M135.66,73.627c-0.133-0.125-0.266-0.222-0.432-0.298
			c-0.128-0.058-0.26-0.102-0.399-0.124c-0.227-0.036-0.443-0.048-0.671,0.004c-0.34,0.077-0.62,0.249-0.876,0.48
			c-0.184,0.166-0.312,0.474-0.247,0.72c0.063,0.238,0.302,0.392,0.544,0.381c0.05-0.002,0.1,0.002,0.149,0.007
			c0.137,0.023,0.273,0.043,0.413,0.031c0.111,0.004,0.217-0.015,0.319-0.056c0.116-0.03,0.223-0.081,0.32-0.155
			c0.111-0.084,0.201-0.184,0.279-0.295c0.054,0.003,0.108,0.002,0.161,0.007c0.177,0.017,0.398-0.124,0.483-0.275
			c0.033-0.059,0.059-0.124,0.066-0.192C135.78,73.762,135.729,73.692,135.66,73.627z"/>
		<g style="opacity:0.48;">
			<path style="fill:#F9E0B0;" d="M148.255,70.251c-0.069-0.009-0.139-0.019-0.208-0.031c-0.005-0.001-0.01,0-0.016-0.001
				C148.106,70.229,148.181,70.24,148.255,70.251z"/>
			<path style="fill:#F9E0B0;" d="M151.522,66.745c-0.136-0.194-0.326-0.374-0.535-0.489c-0.628-0.345-1.356-0.352-2.011-0.063
				c-0.93,0.41-1.545,1.301-1.804,2.261c-0.039,0.146-0.055,0.301-0.03,0.444c-0.033,0.173-0.046,0.35-0.012,0.528
				c0.045,0.234,0.187,0.427,0.37,0.573c0.161,0.129,0.351,0.185,0.547,0.22c0.415,0.064,0.831,0.006,1.23-0.117
				c0.49-0.152,0.953-0.335,1.379-0.626c0.335-0.229,0.668-0.541,0.867-0.9c0.161-0.29,0.294-0.625,0.274-0.964
				C151.779,67.294,151.709,67.012,151.522,66.745z"/>
		</g>
		<path style="opacity:0.48;fill:#F9E0B0;" d="M150.726,58.855c-0.32,0-0.666,0.226-0.766,0.537
			c-0.092,0.286,0.079,0.558,0.391,0.558c0.32,0,0.666-0.226,0.766-0.537C151.209,59.127,151.037,58.855,150.726,58.855z"/>
		<path style="opacity:0.48;fill:#F9E0B0;" d="M153.868,40.13c-0.06-0.147-0.123-0.296-0.23-0.415
			c-0.147-0.163-0.265-0.256-0.457-0.345c-0.352-0.164-0.768-0.203-1.146-0.103c-0.594,0.157-1.072,0.549-1.388,1.054
			c-0.23,0.242-0.404,0.544-0.477,0.865c-0.09,0.395-0.11,0.794-0.014,1.192c0.085,0.353,0.277,0.709,0.584,0.916
			c0.451,0.303,1.07,0.254,1.537,0.017c0.337-0.171,0.62-0.385,0.89-0.65c0.265-0.26,0.451-0.553,0.6-0.891
			c0.115-0.261,0.18-0.556,0.2-0.839C153.987,40.669,153.969,40.377,153.868,40.13z"/>
		<path style="opacity:0.48;fill:#F9E0B0;" d="M107.106,69.406c0.005-0.07-0.011-0.134-0.05-0.193
			c-0.032-0.098-0.093-0.175-0.184-0.231c-0.083-0.076-0.174-0.142-0.274-0.194c-0.013-0.007-0.026-0.014-0.04-0.02
			c-0.121-0.078-0.254-0.117-0.399-0.117c-0.03-0.004-0.06-0.007-0.09-0.01c-0.119-0.01-0.241,0.002-0.357,0.032
			c-0.18,0.047-0.349,0.101-0.503,0.209c-0.032,0.022-0.061,0.05-0.09,0.076c-0.444,0.093-0.837,0.438-1.056,0.817
			c-0.081,0.14-0.131,0.286-0.117,0.449c-0.005,0.06,0.01,0.114,0.043,0.164c0.027,0.083,0.079,0.149,0.156,0.196
			c0.058,0.051,0.127,0.092,0.195,0.127c0.112,0.057,0.229,0.115,0.35,0.149c0.268,0.077,0.53,0.077,0.804,0.041
			c0.298-0.039,0.56-0.171,0.815-0.321c0.259-0.152,0.497-0.393,0.659-0.646c0.034-0.071,0.068-0.142,0.102-0.213
			C107.114,69.618,107.125,69.513,107.106,69.406z"/>
		<path style="opacity:0.48;fill:#F9E0B0;" d="M84.698,67.86c-0.464-0.297-1.017-0.385-1.556-0.317
			c-0.291-0.12-0.617-0.167-0.925-0.098c-0.462,0.102-0.887,0.427-1.098,0.852c-0.166,0.335-0.298,0.719-0.201,1.097
			c0.064,0.249,0.239,0.476,0.467,0.595c0.51,0.268,1.125,0.244,1.666,0.08c0.773-0.234,1.542-0.677,1.847-1.468
			C84.996,68.347,84.94,68.016,84.698,67.86z"/>
		<g style="opacity:0.48;">
			<path style="fill:#F9E0B0;" d="M49.049,59.15c-1.447-1.113-4.112-2.094-5.397-0.219c-0.008,0.011-0.013,0.023-0.02,0.034
				c-0.179,0.071-0.353,0.153-0.512,0.257c-0.487,0.321-0.849,0.84-0.772,1.442c0.073,0.57,0.562,1.009,0.996,1.334
				c0.571,0.427,1.316,0.652,2,0.823c0.87,0.217,1.781,0.344,2.675,0.221c1.017-0.14,2.014-0.829,2.151-1.907
				C50.281,60.271,49.685,59.638,49.049,59.15z M48.047,61.352c-0.042,0.007-0.076,0.004-0.087-0.001
				c-0.103,0.006-0.207,0.017-0.305,0.016c-0.007,0-0.013-0.001-0.02-0.001c0.118-0.071,0.231-0.151,0.339-0.238
				c0.042,0.049,0.083,0.1,0.119,0.154c0.008,0.012,0.018,0.034,0.029,0.057c-0.012,0.002-0.024,0.004-0.036,0.006
				c0.011,0.001,0.018,0.001,0.03,0.002c-0.016-0.002-0.035,0.001-0.052,0.001C48.06,61.35,48.053,61.351,48.047,61.352z"/>
			<path style="fill:#F9E0B0;" d="M48.286,61.331c-0.002,0.002-0.003,0.004-0.005,0.006c0.005-0.005,0.014-0.011,0.021-0.016
				c0.003-0.005,0.005-0.008,0.007-0.011C48.302,61.316,48.294,61.323,48.286,61.331z"/>
			<path style="fill:#F9E0B0;" d="M47.96,61.351c0.036-0.002,0.071-0.003,0.105-0.002c0.007-0.001,0.014-0.002,0.021-0.003
				C47.975,61.336,47.945,61.345,47.96,61.351z"/>
			<path style="fill:#F9E0B0;" d="M48.311,61.301c0.001,0,0.002,0,0.002-0.001C48.314,61.299,48.313,61.299,48.311,61.301z"/>
			<path style="fill:#F9E0B0;" d="M48.392,61.259c0.004-0.002,0.01-0.006,0.013-0.008c-0.006,0.003-0.008,0.006-0.014,0.008
				c-0.015,0.007-0.034,0.015-0.057,0.027c-0.004,0.004-0.009,0.009-0.014,0.013c0.003-0.001,0.005-0.001,0.008-0.002
				c-0.001,0.001-0.003,0.002-0.004,0.002c0.002-0.001,0.005-0.002,0.007-0.002c0,0,0.001,0,0.001,0c0,0,0,0,0.001-0.001
				c0.001,0,0.002,0,0.002-0.001c0.026-0.012,0.052-0.024,0.078-0.034c0.01-0.004,0.017-0.008,0.024-0.012
				C48.446,61.241,48.435,61.241,48.392,61.259z"/>
		</g>
		<path style="opacity:0.48;fill:#F9E0B0;" d="M7.195,52.819c-0.006-0.049-0.015-0.097-0.024-0.146
			c-0.005-0.023-0.01-0.046-0.017-0.069c-0.047-0.163-0.131-0.233-0.25-0.343c-0.084-0.077-0.168-0.138-0.271-0.188
			c-0.09-0.063-0.188-0.097-0.295-0.103c-0.114-0.026-0.23-0.023-0.345,0.008c-0.22,0.053-0.413,0.155-0.585,0.302
			c-0.313,0.268-0.546,0.715-0.307,1.108c0.034,0.056,0.069,0.11,0.102,0.165c0.064,0.172,0.095,0.351,0.111,0.535
			c0.003,0.04,0.005,0.08,0.01,0.119c0.017,0.131,0.111,0.217,0.207,0.296c0.014,0.013,0.026,0.031,0.041,0.041
			c0.115,0.08,0.259,0.093,0.393,0.08c0.132-0.013,0.247-0.054,0.362-0.119c0.132-0.074,0.27-0.182,0.35-0.315
			c0.055-0.063,0.101-0.131,0.132-0.208c0.049-0.083,0.076-0.173,0.081-0.271c0.011-0.055,0.022-0.111,0.032-0.166
			c0.001-0.004,0.001-0.007,0.002-0.011c0.012-0.012,0.027-0.022,0.038-0.034c0.095-0.098,0.166-0.211,0.212-0.34
			C7.214,53.049,7.221,52.935,7.195,52.819z"/>
		<path style="opacity:0.32;fill:#3F418E;" d="M43.923,56.903c-1.337-0.622-2.726-0.885-4.197-0.915
			c-1.143-0.023-2.283,0.04-3.422-0.02c0.494-1.218,0.652-2.55-0.059-3.747c-0.734-1.236-2.192-1.93-3.524-2.305
			c-1.776-0.5-3.633-0.48-5.461-0.445c-2.019,0.038-4.062,0.181-6.03,0.661c-2.059,0.502-4.049,1.366-5.67,2.735
			c-0.431,0.244-0.848,0.521-1.248,0.835c-1.373,1.078-2.461,2.43-3.205,3.991c-1.856-0.12-3.953,0.469-5.037,2.011
			c-0.142,0.202-0.196,0.641,0.079,0.777c2.388,1.187,5.267,1.22,7.335,3.038c2.168,1.905,3.505,4.574,5.19,6.872
			c0.225,0.307,0.749,0.147,0.952-0.1c1.097-1.341,0.906-3.264,0.267-4.834c1.726-0.141,3.432-0.32,5.088-0.785
			c-0.333,0.564-0.607,1.166-0.83,1.735c-0.417,1.061-0.846,2.574-0.097,3.591c0.221,0.3,0.639,0.173,0.9,0.016
			c1.179-0.708,1.879-1.971,2.633-3.075c0.793-1.161,1.83-2.208,2.911-3.102c1.131-0.935,2.355-1.721,3.611-2.474
			c1.308-0.784,2.649-1.52,4.058-2.109c1.568-0.655,3.225-1.109,4.936-1.037c0.348,0.015,0.724-0.223,0.903-0.514
			C44.137,57.487,44.219,57.04,43.923,56.903z"/>
		<path style="opacity:0.32;fill:#3F418E;" d="M81.019,55.051c-1.619-0.031-3.24-0.047-4.854,0.101
			c-1.674,0.154-3.284,0.5-4.887,1.001c-1.617,0.506-3.225,1.124-4.88,1.497c-0.383,0.087-0.769,0.141-1.149,0.202
			c-1.589-0.429-3.202-0.589-4.862-0.569C58.23,57.311,56,57.56,53.981,58.362c-0.931,0.37-1.874,0.905-2.503,1.702
			c-0.188,0.238-0.391,0.664-0.045,0.885c0.964,0.617,2.167,0.642,3.275,0.702c0.56,0.03,1.129,0.048,1.679,0.166
			c0.686,0.146,1.349,0.443,1.993,0.714c1.414,0.595,2.78,1.296,4.171,1.94c1.174,0.544,2.341,1.1,3.361,1.908
			c0.961,0.761,1.798,2.234,3.087,2.439c0.419,0.067,0.935-0.161,1.062-0.605c0.778-2.72,2.43-5.28,4.488-7.214
			c2.026-1.902,4.684-2.966,6.785-4.785C81.774,55.834,81.671,55.064,81.019,55.051z"/>
		<path style="opacity:0.32;fill:#3F418E;" d="M130.375,57.576c-0.398-1.32-2.204-1.218-3.275-1.101
			c-0.706,0.077-1.4,0.218-2.096,0.356c-0.839,0.166-1.688,0.274-2.529,0.431c-2.014,0.375-3.979,0.914-5.964,1.413
			c-1.831,0.46-3.676,0.864-5.476,1.44c-1.459,0.467-2.931,1.021-4.188,1.902c-0.582,0.05-1.161,0.144-1.732,0.266
			c-1.435,0.306-2.859,0.764-4.223,1.304c-2.028,0.802-4.002,2.009-5.585,3.513c-0.853,0.81-1.657,1.818-1.94,2.983
			c-0.154,0.632,0.399,0.826,0.916,0.642c6.432-2.281,13.416-4.441,20.272-2.799c1.511,0.362,3.012,0.931,4.145,2.03
			c0.223,0.216,0.69,0.051,0.897-0.094c0.267-0.187,0.44-0.482,0.395-0.811c-0.104-0.766-0.197-1.54-0.16-2.315
			c0.03-0.647,0.147-1.168,0.707-1.402c0.674-0.282,1.404-0.405,2.073-0.708c0.306-0.138,0.604-0.296,0.9-0.454
			c2.054-1.097,4.247-2.352,5.843-4.076C129.95,59.452,130.657,58.509,130.375,57.576z"/>
		<path style="opacity:0.32;fill:#3F418E;" d="M156.153,47.997c-1.619-2.299-4.849-2.874-7.477-3.051
			c-2.226-0.15-4.918,0.066-7.068,1.115c-1.083,0.235-2.144,0.577-3.152,1.016c-2.21,0.963-4.413,2.492-5.539,4.687
			c-0.654,1.274-0.892,2.632-0.764,4.054c0.028,0.306,0.472,0.409,0.709,0.342c1.867-0.522,3.232-1.99,4.775-3.075
			c1.58-1.11,3.583-1.565,5.472-1.803c2.014-0.254,4.123-0.085,6.065,0.507c0.902,0.275,1.67,0.661,2.446,1.186
			c0.712,0.481,1.533,1.025,2.431,0.998c1.479-0.045,2.916-1.016,3.154-2.528C157.394,50.243,156.832,48.961,156.153,47.997z"/>
		<path style="opacity:0.32;fill:#3F418E;" d="M127.437,21.127c-1.628-0.375-3.193-0.976-4.819-1.358
			c-1.196-0.281-2.399-0.391-3.602-0.3c0.383-0.637,0.602-1.353,0.354-2.059c-0.371-1.055-1.552-1.552-2.545-1.83
			c-1.448-0.405-2.995-0.501-4.493-0.492c-1.626,0.01-3.266,0.16-4.861,0.474c-0.808,0.159-1.607,0.37-2.38,0.655
			c-0.349,0.129-0.684,0.278-1.006,0.466c-0.124,0.072-0.246,0.146-0.362,0.228c-0.047,0.033-0.094,0.068-0.139,0.103
			c-0.082,0.064-0.43,0.359-0.16,0.136c-0.1,0.083-0.204,0.19-0.287,0.308c-0.001,0-0.001,0.001-0.002,0.001
			c-0.175,0.093-0.352,0.185-0.533,0.266c-0.084,0.038-0.168,0.072-0.253,0.107c-0.169,0.068,0.07-0.025-0.121,0.035
			c-0.02,0.006-0.033,0.011-0.043,0.015c-0.008-0.003-0.02-0.007-0.043-0.01c-0.084-0.013-0.162-0.022-0.246-0.042
			c-0.325-0.074-0.645-0.197-0.958-0.31c-0.656-0.237-1.297-0.521-1.969-0.713c-1.776-0.507-3.825-0.149-5.363,0.841
			c-0.514,0.331-0.591,1.108,0.113,1.197c2.128,0.269,4.145,1.389,5.845,2.645c1.853,1.369,3.565,3.137,4.532,5.255
			c0.493,1.078,0.755,2.254,0.645,3.44c-0.081,0.879,1.283,0.433,1.447-0.144c0.315-1.114,1.107-2.005,1.993-2.72
			c1.084-0.875,2.297-1.574,3.548-2.18c2.758-1.334,5.628-2.286,8.687-2.606c2.108-0.22,4.273-0.229,6.388-0.09
			C127.403,22.485,128.302,21.326,127.437,21.127z"/>
		<path style="opacity:0.32;fill:#3F418E;" d="M83.72,27.362c-1.934-0.142-3.865,0.008-5.795,0.131
			c-1.824,0.117-3.585,0.506-5.391,0.747c-0.809,0.108-1.64,0.16-2.45,0.028c-0.877-0.143-1.728-0.416-2.604-0.565
			c-1.754-0.298-3.542-0.144-5.292-0.505c-0.014-0.003-0.029-0.002-0.043-0.004c-0.418-0.098-0.835-0.174-1.241-0.224
			c-1.68-0.209-3.218,0.388-4.859,0.601c-0.504,0.065-1.233,1.097-0.442,1.289c4.632,1.125,8.971,4.495,10.872,8.917
			c0.223,0.519,0.894,0.382,1.218,0.022c1.913-2.131,3.836-4.204,6.389-5.578c3.006-1.618,6.335-2.402,9.551-3.48
			C84.27,28.529,84.615,27.427,83.72,27.362z"/>
		<path style="opacity:0.32;fill:#3F418E;" d="M49.164,12.236c-2.546-0.21-5.061,0.932-7.288,2.031
			c-1.095,0.54-2.168,1.128-3.278,1.637c-0.966,0.443-2.009,0.687-3.019,1.009c-0.527,0.167-1.054,0.348-1.562,0.566
			c-1.811,0.563-3.46,1.479-4.872,2.781c-1.631,1.503-2.91,3.332-4.288,5.058c-0.46,0.576-0.083,1.185,0.641,0.914
			c1.403-0.526,2.532-1.548,3.879-2.177c1.431-0.668,3.001-0.978,4.555-1.206c1.577-0.231,3.162-0.41,4.741-0.63
			c1.595-0.222,3.205-0.416,4.819-0.327c1.478,0.081,2.986,1.021,4.472,0.567c0.412-0.126,0.913-0.5,0.796-1.002
			c-0.432-1.867-2.333-1.95-3.818-2.513c-0.551-0.209-0.802-0.539-0.587-1.199c0.298-0.913,1.184-1.588,1.921-2.142
			c0.984-0.739,2.064-1.358,3.002-2.158C49.699,13.085,49.949,12.301,49.164,12.236z"/>
		<g>
			<path style="fill:#1D193C;" d="M153.9,44.009c-0.244-1.314-0.998-2.419-1.992-3.287c-2.151-1.877-5.299-2.393-8.056-2.058
				c-3.116,0.378-6.058,2.145-7.409,5.043c-0.789,1.692-0.908,3.947,0.458,5.39c1.734,1.83,4.49,1.379,6.735,1.093
				c1.587-0.203,3.144-0.316,4.684,0.211c1.066,0.364,2.153,0.871,3.261,0.338c1.15-0.553,1.682-1.76,1.84-2.958
				c0.02-0.155,0.036-0.313,0.049-0.473C153.923,46.273,154.113,45.153,153.9,44.009z"/>
			<path style="fill:#1D193C;" d="M41.835,14.835c-0.156-0.204-0.329-0.375-0.524-0.525c-0.07-0.104-0.144-0.207-0.227-0.305
				c-0.702-0.829-1.769-1.219-2.836-1.242c-1.265-0.027-2.573,0.361-3.659,1.003c-0.787,0.466-1.476,1.143-2.084,1.818
				c-0.731,0.811-1.408,1.72-1.821,2.738c-0.339,0.835-0.48,1.838,0.11,2.594c0.797,1.021,2.26,0.974,3.398,0.738
				c0.777-0.161,1.533-0.409,2.316-0.549c0.897-0.161,1.81-0.226,2.705-0.399c1.338-0.26,2.554-1.052,3.118-2.323
				C42.851,17.209,42.604,15.84,41.835,14.835z"/>
			<path style="fill:#1D193C;" d="M34.138,53.092c0.042-2.083-1.648-3.72-3.271-4.766c-3.513-2.264-7.869-2.655-11.752-1.129
				c-1.903,0.748-3.668,1.966-4.957,3.563c-1.229,1.522-2.27,3.557-2.165,5.564c0.113,2.149,1.266,4.216,2.934,5.554
				c1.907,1.531,4.468,1.767,6.815,1.471c2.604-0.328,5.214-1.315,7.44-2.698c2.123-1.319,3.93-3.229,4.582-5.694
				c0.028-0.106,0.03-0.195,0.014-0.269C33.989,54.185,34.126,53.658,34.138,53.092z"/>
			<path style="fill:#1D193C;" d="M74.511,54.84c-0.495-1.439-1.844-2.406-3.289-2.731c-1.728-0.389-3.566-0.107-5.233,0.419
				c-0.959,0.303-1.924,0.676-2.789,1.199c-1.432,0.473-2.86,1.271-3.85,2.415c-0.998,1.154-1.51,2.677-0.628,4.052
				c0.885,1.38,2.517,2.261,3.958,2.942c1.843,0.872,3.741,1.271,5.733,0.637c1.954-0.622,3.635-1.971,4.789-3.65
				C74.201,58.669,75.124,56.622,74.511,54.84z"/>
			<path style="fill:#1D193C;" d="M120.758,13.694c-0.105-2.148-2.116-3.651-3.927-4.436c-3.665-1.589-8.341-0.867-11.564,1.406
				c-1.634,1.153-3.065,2.773-3.406,4.8c-0.261,1.554,0.303,3.15,1.333,4.317c1.151,1.304,2.757,2.165,4.461,2.484
				c1.746,0.327,3.437,0.08,5.139-0.351c1.808-0.459,3.646-1.071,5.204-2.122c1.306-0.88,2.843-2.53,2.419-4.246
				C120.649,14.954,120.789,14.325,120.758,13.694z"/>
			<path style="fill:#1D193C;" d="M74.048,24.788c-1.239-1.081-2.995-1.349-4.581-1.192c-1.626,0.16-3.369,0.716-4.683,1.714
				c-0.154,0.117-0.301,0.241-0.441,0.37c-0.609,0.066-1.205,0.403-1.611,0.882c-0.735,0.87-0.987,2.133-0.602,3.212
				c0.461,1.289,1.766,2.285,2.953,2.872c1.316,0.65,2.844,0.958,4.29,0.595c1.288-0.323,2.408-1.158,3.368-2.047
				c0.931-0.862,1.816-1.938,2.196-3.169C75.311,26.809,75.014,25.631,74.048,24.788z"/>
			<path style="fill:#1D193C;" d="M123.876,54.253c-0.822-2.054-2.738-3.297-4.835-3.789c-3.92-0.92-8.482,0.187-11.657,2.627
				c-2.851,2.191-5.189,6.483-2.634,9.773c1.083,1.394,2.71,2.282,4.362,2.825c1.771,0.583,3.662,0.776,5.514,0.578
				c1.811-0.194,3.318-0.944,4.846-1.897c1.79-1.116,3.926-2.699,4.513-4.842c0.112-0.41,0.147-0.784,0.065-1.177
				C124.335,56.984,124.41,55.588,123.876,54.253z"/>
			<g>
				<g>
					<path style="fill:#35335C;" d="M27.941,49.3c-1.366-1.314-3.44-2.073-5.319-1.852c-1.117,0.132-2.231,0.383-3.301,0.728
						c-0.543,0.175-1.037,0.389-1.487,0.678c-0.923,0.236-1.798,0.822-2.428,1.507c-1.145,1.245-1.93,3.207-0.987,4.789
						c0.568,0.952,1.678,1.413,2.697,1.697c1.481,0.412,3.082,0.432,4.569,0.036c1.91-0.509,3.757-1.663,5.256-2.929
						c0.72-0.608,1.507-1.329,1.811-2.252C29.056,50.774,28.601,49.936,27.941,49.3z"/>
					<path style="fill:#35335C;" d="M19.257,51.473c-0.006,0.006-0.011,0.011-0.017,0.016
						C19.243,51.487,19.248,51.482,19.257,51.473z"/>
				</g>
				<g>
					<path style="fill:#35335C;" d="M64.438,56.572c-0.001,0.001-0.002,0.001-0.003,0.002c-0.026,0.023-0.064,0.043-0.101,0.062
						C64.338,56.646,64.383,56.632,64.438,56.572z"/>
					<path style="fill:#35335C;" d="M64.092,56.795c-0.002,0.002-0.005,0.004-0.007,0.005c-0.019,0.027-0.052,0.057-0.088,0.086
						C64.02,56.881,64.069,56.849,64.092,56.795z"/>
					<g>
						<path style="fill:none;" d="M64.184,57.053c-0.005,0.005-0.01,0.014-0.016,0.025C64.174,57.069,64.179,57.058,64.184,57.053z"
							/>
						<path style="fill:none;" d="M64.22,57.041c-0.001-0.003-0.001-0.005-0.001-0.007C64.218,57.036,64.219,57.038,64.22,57.041z"
							/>
						<path style="fill:none;" d="M64.23,57.031c0.003,0.003,0.008,0.011,0.012,0.016c0.002-0.012,0.006-0.008,0.012,0.016
							c0.001,0.002,0.002,0.002,0.003,0.004c0.003,0.004,0.009,0.01,0.014,0.015c0.009,0.007,0.019,0.013,0.029,0.02
							C64.285,57.055,64.249,57.033,64.23,57.031z"/>
						<path style="fill:#35335C;" d="M71.835,56.16c-0.248-0.992-1.15-1.569-2.09-1.807c-1.061-0.269-2.172-0.233-3.25-0.108
							c-0.936,0.108-1.907,0.308-2.744,0.753c-0.031,0.016-0.061,0.035-0.092,0.052c-0.821,0.221-1.572,0.614-2.16,1.321
							c-0.772,0.928-1.079,2.287-0.257,3.289c0.756,0.922,2.012,1.299,3.148,1.456c0.981,0.136,1.962,0.017,2.91-0.259
							c1.192-0.348,2.357-0.851,3.306-1.668C71.472,58.444,72.129,57.336,71.835,56.16z M64.219,57.034c0,0.002,0,0.004,0.001,0.007
							C64.219,57.038,64.218,57.036,64.219,57.034z M64.168,57.078c0.006-0.011,0.012-0.021,0.016-0.025
							C64.179,57.058,64.174,57.069,64.168,57.078z M64.258,57.067c-0.001-0.002-0.002-0.002-0.003-0.004
							c-0.006-0.024-0.01-0.028-0.012-0.016c-0.004-0.005-0.01-0.013-0.012-0.016c0.019,0.002,0.055,0.024,0.07,0.071
							c-0.009-0.007-0.019-0.013-0.029-0.02C64.267,57.077,64.26,57.071,64.258,57.067z"/>
					</g>
				</g>
				<g>
					<path style="fill:#35335C;" d="M69.245,28.312c0,0.004,0,0.007,0,0.012c0-0.001,0.001-0.002,0.001-0.003
						C69.247,28.316,69.247,28.313,69.245,28.312z"/>
					<path style="fill:#35335C;" d="M66.503,28.005c0,0.004,0,0.008-0.001,0.012c0.002-0.003,0.004-0.005,0.006-0.008
						C66.506,28.006,66.505,28.006,66.503,28.005z"/>
					<polygon style="fill:#35335C;" points="66.509,28.098 66.51,28.1 66.511,28.095 66.507,28.095 					"/>
					<path style="fill:#35335C;" d="M70.987,26.539c-0.237-0.464-0.686-0.765-1.15-0.967c-2.091-0.913-5.221,0.446-5.379,2.887
						c-0.006,0.093-0.002,0.187,0.007,0.28c-0.015,0.099-0.026,0.2-0.027,0.304c-0.01,0.947,0.656,1.597,1.555,1.782
						c0.983,0.203,2.051,0.005,2.961-0.393c0.94-0.411,1.923-1.159,2.205-2.194C71.317,27.659,71.26,27.072,70.987,26.539z"/>
				</g>
				<path style="fill:#35335C;" d="M38.496,15.11c-0.602-0.709-1.665-0.696-2.492-0.466c-0.999,0.278-1.949,0.809-2.57,1.658
					c-0.422,0.578-0.552,1.527-0.104,2.124c0.034,0.088,0.073,0.177,0.125,0.265c0.504,0.845,1.654,0.713,2.437,0.428
					c0.829-0.302,1.649-0.889,2.205-1.573C38.635,16.885,39.152,15.882,38.496,15.11z"/>
				<path style="fill:#35335C;" d="M118.967,54.364c-1.211-1.483-3.116-1.87-4.946-1.901c-1.037-0.018-2.126,0.084-3.167,0.345
					c-1.06,0.191-2.077,0.617-2.982,1.199c-1.063,0.684-1.887,1.663-2.05,2.952c-0.18,1.421,0.536,2.923,1.462,3.961
					c0.781,0.875,1.732,1.56,2.888,1.826c1.017,0.233,2.083,0.198,3.098-0.025c2.087-0.459,4.092-1.648,5.397-3.35
					C119.79,57.906,120.218,55.896,118.967,54.364z"/>
				<path style="fill:#35335C;" d="M147.485,40.251c-1.043-0.535-2.208-0.646-3.354-0.494c-1.06,0.14-2.131,0.484-3.079,0.977
					c-0.668,0.348-1.34,0.781-1.879,1.332c-0.417,0.348-0.788,0.748-1.092,1.165c-0.719,0.988-1.09,2.441-0.18,3.442
					c0.799,0.879,2.146,1.053,3.269,1.035c1.12-0.018,2.278-0.199,3.327-0.603c1.035-0.399,1.993-1.083,2.764-1.875
					c0.721-0.742,1.351-1.674,1.486-2.721C148.871,41.543,148.334,40.686,147.485,40.251z"/>
				<g>
					<polygon style="fill:#35335C;" points="112.979,13.295 112.979,13.296 112.978,13.304 112.98,13.302 					"/>
					<path style="fill:#35335C;" d="M117.754,11.104c-0.284-0.607-0.864-0.954-1.472-1.181c-1.404-0.523-3.008-0.42-4.466-0.24
						c-1.588,0.195-3.228,0.583-4.598,1.439c-0.509,0.318-0.951,0.747-1.26,1.239c-0.585,0.421-1.041,1.002-1.281,1.78
						c-1.049,3.39,3.899,3.954,6.158,3.653c1.457-0.194,2.88-0.934,4.07-1.765c1.154-0.806,2.362-1.883,2.861-3.239
						C117.968,12.242,118.005,11.64,117.754,11.104z M115.573,12.516c0.023,0.063,0.04,0.128,0.052,0.194
						c0,0.054-0.001,0.108-0.007,0.162c-0.011,0.035-0.024,0.069-0.037,0.104c-0.001,0.003-0.002,0.005-0.003,0.008
						c-0.009,0.018-0.019,0.036-0.03,0.052c0,0.001-0.001,0.001-0.001,0.002c-0.012,0.014-0.024,0.028-0.036,0.041
						c-0.001,0.001-0.002,0.002-0.003,0.003c-0.009,0.007-0.017,0.013-0.026,0.02c-0.004,0.003-0.009,0.006-0.015,0.01
						c0.034-0.279,0.02-0.561-0.052-0.84c0.015,0.018,0.031,0.036,0.045,0.055C115.504,12.386,115.539,12.451,115.573,12.516z"/>
				</g>
				<path style="fill:#5D6291;" d="M19.385,50.199c-0.161-0.12-0.36-0.202-0.55-0.263c-0.187-0.059-0.392-0.093-0.587-0.084
					c-0.795,0.037-1.476,0.482-1.902,1.125c-0.132,0.081-0.255,0.168-0.36,0.292c-0.138,0.163-0.239,0.333-0.32,0.531
					c-0.119,0.291-0.157,0.657-0.059,0.96c0.127,0.39,0.413,0.633,0.781,0.789c0.309,0.13,0.712,0.128,1.03,0.033
					c0.399-0.119,0.764-0.293,1.109-0.528c0.294-0.2,0.576-0.441,0.798-0.721c0.264-0.334,0.493-0.702,0.528-1.138
					C19.885,50.795,19.702,50.435,19.385,50.199z"/>
				<path style="fill:#5D6291;" d="M22.261,49.435c-0.504,0-0.975,0.895-0.307,0.895C22.458,50.331,22.93,49.435,22.261,49.435z"/>
				<path style="fill:#5D6291;" d="M66.464,56.1c-0.096-0.192-0.272-0.361-0.454-0.47c-0.272-0.164-0.534-0.229-0.844-0.268
					c-0.234-0.029-0.486-0.008-0.713,0.056c-0.208,0.058-0.408,0.138-0.593,0.242c-0.117,0.036-0.234,0.073-0.347,0.118
					c-0.243,0.097-0.478,0.223-0.689,0.377c-0.467,0.339-0.885,0.82-0.946,1.417c-0.055,0.542,0.316,0.993,0.775,1.228
					c0.253,0.129,0.516,0.187,0.802,0.179c0.268-0.007,0.547-0.04,0.807-0.11c0.663-0.178,1.273-0.478,1.783-0.94
					c0.229-0.208,0.438-0.501,0.525-0.801C66.674,56.764,66.63,56.431,66.464,56.1z"/>
				<path style="fill:#5D6291;" d="M66.866,57.935c-0.367,0-0.763,0.258-0.877,0.615c-0.105,0.327,0.091,0.639,0.448,0.639
					c0.367,0,0.763-0.258,0.877-0.615C67.419,58.246,67.223,57.935,66.866,57.935z"/>
				<path style="fill:#5D6291;" d="M36.29,16.87c0.001-0.095-0.032-0.16-0.104-0.224c-0.018-0.016-0.04-0.028-0.058-0.043
					c-0.001-0.01-0.002-0.02-0.002-0.03c-0.002-0.009-0.006-0.019-0.009-0.028c-0.004-0.017-0.015-0.029-0.02-0.045
					c-0.005-0.013-0.012-0.026-0.018-0.038c-0.041-0.092-0.097-0.173-0.184-0.233c-0.076-0.048-0.157-0.076-0.242-0.094
					c-0.066-0.021-0.134-0.033-0.2-0.028c-0.161,0-0.314,0.032-0.461,0.098c-0.097,0.04-0.183,0.096-0.262,0.162
					c-0.164,0.085-0.314,0.199-0.431,0.331c-0.097,0.11-0.189,0.23-0.256,0.362c-0.037,0.072-0.073,0.145-0.105,0.219
					c-0.071,0.165-0.055,0.342,0.037,0.494c0.033,0.055,0.068,0.108,0.099,0.164c0.079,0.143,0.31,0.22,0.46,0.218
					c0.218-0.003,0.422-0.076,0.602-0.198c0.089-0.061,0.172-0.134,0.257-0.201c0.089-0.07,0.171-0.147,0.254-0.223
					c0.079-0.053,0.154-0.113,0.216-0.18c0.016-0.021,0.032-0.041,0.048-0.062c0.097-0.029,0.189-0.084,0.25-0.154
					C36.225,17.064,36.289,16.971,36.29,16.87z"/>
				<path style="fill:#5D6291;" d="M66.943,27.191c-0.002-0.007-0.007-0.013-0.009-0.02c-0.001-0.003-0.002-0.006-0.003-0.009
					c-0.022-0.056-0.049-0.122-0.079-0.174c-0.003-0.006-0.006-0.011-0.01-0.016c-0.011-0.017-0.084-0.088-0.117-0.117
					c-0.015-0.035-0.039-0.067-0.071-0.087c-0.07-0.043-0.157-0.055-0.237-0.035c-0.003,0.001-0.007,0.002-0.01,0.003
					c-0.022-0.002-0.045-0.005-0.064-0.005c-0.029,0-0.185,0.017-0.214,0.022c-0.141,0.024-0.313,0.109-0.428,0.19
					c-0.12,0.084-0.258,0.218-0.332,0.347c-0.038,0.065-0.074,0.143-0.102,0.213c-0.004,0.011-0.008,0.021-0.012,0.032
					c-0.042,0.119-0.044,0.184-0.035,0.294c-0.002-0.023-0.004-0.047-0.006-0.07c0.001,0.013,0.001,0.025,0.001,0.038l0.016,0.182
					c0.003,0.012,0.009,0.021,0.012,0.032c0.002,0.025,0.004,0.049,0.006,0.074c0.026,0.098,0.08,0.176,0.163,0.233
					c0.044,0.022,0.089,0.043,0.134,0.062c0.052,0.008,0.104,0.015,0.157,0.023c0.059,0.004,0.116-0.002,0.17-0.017
					c0.033-0.011,0.067-0.022,0.1-0.032c0.009-0.001,0.018-0.002,0.026-0.003c0.072-0.023,0.144-0.047,0.216-0.07
					c0.114-0.047,0.216-0.113,0.303-0.198c0.059-0.044,0.11-0.097,0.156-0.154c0.015-0.013,0.024-0.022,0.02-0.017
					c0.001-0.001,0.003-0.002,0.004-0.003c0.045-0.057,0.089-0.114,0.134-0.172c0.039-0.055,0.069-0.116,0.088-0.183
					c0.02-0.059,0.038-0.122,0.038-0.185C66.952,27.307,66.948,27.249,66.943,27.191z"/>
				<g>
					<path style="fill:#5D6291;" d="M109.618,12.995c0.002-0.003,0.005-0.007,0.007-0.01c0.003-0.009,0.006-0.018,0.01-0.027
						c0,0,0,0,0,0c0,0,0-0.001,0-0.001c0-0.001,0-0.001,0.001-0.002c0,0,0-0.001-0.001-0.002c0-0.004,0.001-0.007,0.001-0.011
						c0-0.001-0.001-0.001-0.001-0.001c-0.001,0.002-0.001,0.004-0.002,0.005c-0.002-0.005-0.004-0.01-0.005-0.016
						c-0.002-0.003-0.004-0.006-0.006-0.009c0.002,0.008,0.007,0.018,0.01,0.027C109.628,12.963,109.623,12.979,109.618,12.995z"/>
					<path style="fill:#5D6291;" d="M109.555,13.085c0.001,0,0.002,0.001,0.004,0.001c0.018-0.028,0.037-0.056,0.055-0.084
						C109.624,12.977,109.608,12.989,109.555,13.085z"/>
					<path style="fill:#5D6291;" d="M111.324,11.684c-0.217-0.302-0.557-0.498-0.906-0.608c-0.923-0.29-1.905-0.014-2.709,0.462
						c-0.234,0.139-0.461,0.306-0.662,0.5c-0.39,0.214-0.741,0.492-1.008,0.861c-0.382,0.527-0.534,1.391-0.052,1.912
						c0.509,0.55,1.285,0.589,1.983,0.502c0.614-0.076,1.243-0.28,1.792-0.566c0.745-0.388,1.5-1.007,1.727-1.853
						C111.599,12.481,111.582,12.043,111.324,11.684z"/>
				</g>
				<path style="fill:#5D6291;" d="M114.244,11.706c0-0.012-0.011-0.133-0.012-0.145c0-0.001,0-0.002,0-0.003
					c0-0.002,0-0.003-0.001-0.005c0-0.003-0.001-0.006-0.001-0.009c-0.001-0.005-0.001-0.01-0.002-0.015
					c-0.022-0.047-0.043-0.095-0.065-0.142c-0.046-0.07-0.107-0.117-0.184-0.143c-0.048-0.031-0.1-0.046-0.157-0.046
					c-0.089-0.02-0.178-0.018-0.268,0.006c-0.125,0.016-0.185,0.058-0.282,0.113c-0.029,0.016-0.064,0.034-0.094,0.053
					c-0.002,0.001-0.003,0.002-0.005,0.003c-0.003,0.002-0.006,0.004-0.008,0.006c-0.005,0.003-0.01,0.007-0.014,0.011
					c-0.027,0.022-0.055,0.047-0.08,0.068c-0.02,0.017-0.054,0.045-0.079,0.068c-0.001,0.001-0.003,0.003-0.004,0.004
					c-0.001,0.001-0.002,0.003-0.003,0.004c-0.008,0.01-0.109,0.138-0.115,0.148c0,0-0.001,0.001-0.001,0.002c0,0,0,0.001,0,0.001
					c0,0,0,0,0,0c-0.013,0.026-0.025,0.052-0.037,0.078c-0.012,0.026-0.025,0.052-0.037,0.078c0,0,0,0,0,0.001c0,0,0,0,0,0.001
					c0,0,0,0.001,0,0.001c-0.001,0.003-0.032,0.154-0.032,0.156c-0.01,0.096,0.018,0.203,0.074,0.282
					c0.032,0.046,0.076,0.083,0.125,0.113c0.004,0.003,0.008,0.006,0.011,0.009c-0.003-0.003-0.005-0.005-0.008-0.008
					c0,0,0,0,0.001,0c0.046,0.034,0.096,0.061,0.155,0.077c0.056,0.009,0.113,0.018,0.169,0.025
					c0.017,0.002,0.034-0.005,0.052-0.005c0.016,0.002,0.032,0.005,0.048,0.007c0.017,0.002,0.033,0.005,0.05,0.007
					c0.049-0.005,0.099-0.01,0.149-0.015c0.082-0.016,0.158-0.046,0.228-0.092c0.053-0.024,0.1-0.056,0.14-0.098
					c0.066-0.05,0.121-0.111,0.164-0.183c0.022-0.045,0.043-0.09,0.064-0.135c0.009-0.043,0.018-0.086,0.027-0.129
					C114.228,11.809,114.241,11.76,114.244,11.706z"/>
				<path style="fill:#5D6291;" d="M144.251,42.629c-0.133-0.493-0.523-0.846-0.981-1.036c-0.446-0.185-0.965-0.129-1.418,0.007
					c-0.04,0.005-0.08,0.009-0.119,0.016c-0.235,0.044-0.466,0.124-0.686,0.216c-0.463,0.193-0.897,0.471-1.278,0.796
					c-0.459,0.391-0.865,0.82-1.116,1.375c-0.184,0.406-0.219,0.956,0.102,1.308c0.44,0.484,1.141,0.582,1.766,0.574
					c0.438-0.006,0.851-0.124,1.259-0.274c0.4-0.147,0.793-0.354,1.144-0.595c0.403-0.278,0.774-0.621,1.043-1.033
					C144.221,43.595,144.375,43.09,144.251,42.629z"/>
				<path style="fill:#5D6291;" d="M146.264,41.058c-0.384,0-0.799,0.271-0.919,0.644c-0.11,0.343,0.095,0.669,0.469,0.669
					c0.384,0,0.799-0.271,0.919-0.644C146.843,41.384,146.637,41.058,146.264,41.058z"/>
				<path style="fill:#5D6291;" d="M112.841,56.491c-0.093-0.462-0.34-0.871-0.672-1.198c-0.401-0.395-0.892-0.602-1.448-0.669
					c-0.697-0.084-1.378,0.179-1.968,0.524c-0.379,0.222-0.722,0.528-1.012,0.873c-0.224,0.153-0.413,0.344-0.577,0.559
					c-0.264,0.348-0.426,0.819-0.4,1.258c0.016,0.278,0.091,0.526,0.212,0.751c0.112,0.285,0.296,0.543,0.569,0.693
					c0.042,0.023,0.087,0.04,0.131,0.06c0.396,0.254,0.876,0.369,1.337,0.421c0.37,0.041,0.748,0.007,1.115-0.046
					c0.347-0.05,0.695-0.148,1.015-0.291c0.589-0.262,1.151-0.705,1.45-1.287C112.859,57.622,112.957,57.068,112.841,56.491z"/>
				<path style="fill:#5D6291;" d="M111.66,60.758c-0.358,0-0.744,0.252-0.856,0.6c-0.103,0.319,0.089,0.623,0.437,0.623
					c0.358,0,0.745-0.252,0.856-0.6C112.2,61.062,112.008,60.758,111.66,60.758z"/>
			</g>
		</g>
	</g>
</g>
</svg>
